<?xml version="1.0" standalone="no"?>
<!DOCTYPE svg PUBLIC "-//W3C//DTD SVG 20010904//EN"
 "http://www.w3.org/TR/2001/REC-SVG-20010904/DTD/svg10.dtd">
<svg version="1.0" xmlns="http://www.w3.org/2000/svg"
 width="570.000000pt" height="438.000000pt" viewBox="0 0 570.000000 438.000000"
 preserveAspectRatio="xMidYMid meet">
<metadata>
Created by potrace 1.10, written by Peter Selinger 2001-2011
</metadata>
<g transform="translate(0.000000,438.000000) scale(0.100000,-0.100000)"
fill="#000000" stroke="none">
<path d="M2100 4114 c-510 -63 -953 -375 -1179 -832 -27 -53 -56 -118 -65
-143 -20 -52 14 -39 -376 -150 l-225 -64 0 -893 c0 -789 2 -893 15 -889 8 3
246 71 527 152 l513 147 67 -51 c412 -308 978 -377 1473 -180 178 71 392 217
520 355 121 130 241 317 301 467 17 45 36 86 40 91 5 5 113 39 241 76 l233 66
3 893 c2 848 1 893 -15 889 -10 -3 -226 -64 -479 -137 l-461 -132 -66 50
c-160 120 -347 206 -567 258 -86 20 -137 25 -285 28 -99 2 -196 1 -215 -1z
m345 -30 c83 -10 86 -10 125 -18 29 -6 60 -12 79 -15 3 -1 -4 -7 -15 -15 -11
-8 -15 -18 -10 -23 5 -4 11 -2 13 5 3 6 11 12 19 12 9 0 12 5 9 10 -3 6 -1 10
4 10 6 0 11 -4 11 -9 0 -5 14 -11 30 -14 20 -4 30 -13 30 -24 0 -14 2 -15 9
-4 6 9 15 11 27 6 11 -5 25 -7 33 -6 9 2 12 -3 8 -13 -7 -17 8 -22 18 -6 10
17 48 -9 42 -29 -2 -10 1 -18 8 -18 7 0 11 6 8 14 -8 20 3 16 86 -29 98 -53
186 -113 203 -136 15 -22 100 -27 133 -9 11 6 29 12 40 14 19 3 134 38 165 50
8 4 22 8 30 9 8 2 33 8 55 13 22 6 49 8 60 5 14 -4 16 -3 7 4 -15 10 7 20 61
28 16 2 37 9 47 14 11 6 23 9 27 9 4 -1 21 3 36 9 16 7 34 12 41 12 7 0 39 9
71 20 32 11 63 19 69 18 6 0 25 4 41 11 17 7 40 14 52 14 13 1 23 6 23 12 0 6
3 6 9 0 12 -13 21 -184 10 -190 -4 -3 -4 -17 1 -30 5 -14 6 -25 2 -25 -4 0 -4
-51 -1 -112 3 -65 1 -118 -4 -125 -6 -9 -6 -13 2 -13 9 0 9 -5 1 -20 -8 -15
-8 -20 2 -20 10 0 10 -2 0 -9 -8 -4 -13 -11 -13 -15 3 -20 0 -26 -11 -20 -7 4
-8 3 -4 -4 4 -6 12 -9 19 -6 9 3 12 -63 12 -291 0 -162 -4 -295 -8 -295 -4 0
-4 -8 0 -17 5 -10 6 -76 3 -148 -3 -71 -3 -148 0 -170 3 -22 2 -48 -2 -57 -6
-11 -5 -18 2 -18 7 0 7 -7 -1 -21 -6 -12 -7 -19 -1 -15 9 5 9 -10 2 -95 0 -3
-26 -14 -57 -25 -32 -10 -60 -21 -63 -24 -5 -5 -27 -9 -77 -13 -11 -1 -19 -5
-17 -8 2 -4 -14 -9 -36 -13 -21 -3 -51 -11 -67 -18 -15 -6 -35 -13 -43 -14 -8
-2 -32 -7 -52 -12 -20 -5 -40 -7 -44 -3 -4 3 -4 1 -1 -5 4 -7 1 -14 -7 -17 -7
-3 -17 -18 -20 -33 -4 -16 -16 -47 -27 -71 -10 -23 -19 -46 -19 -52 0 -5 -8
-15 -17 -20 -10 -6 -15 -11 -11 -11 20 0 -108 -215 -164 -275 -10 -11 -33 -37
-51 -59 -65 -78 -88 -97 -111 -91 -14 4 -17 3 -8 -3 10 -7 8 -14 -8 -34 -28
-37 -214 -168 -236 -168 -11 0 -25 -9 -32 -20 -7 -11 -19 -20 -27 -20 -8 0
-30 -9 -50 -20 -19 -11 -35 -17 -35 -14 0 4 -7 0 -16 -7 -15 -12 -63 -33 -104
-44 -8 -2 -40 -11 -70 -20 -80 -24 -201 -45 -213 -38 -6 3 -7 1 -4 -4 5 -7
-13 -12 -51 -13 -157 -5 -230 -4 -227 1 2 3 -10 3 -27 1 -30 -5 -188 14 -218
26 -8 3 -22 7 -30 8 -8 1 -53 14 -99 28 -47 14 -86 26 -89 26 -2 0 -2 7 2 15
3 8 1 15 -3 15 -5 0 -11 -4 -13 -9 -1 -5 -26 0 -55 11 -39 15 -50 24 -46 37 4
12 2 13 -4 3 -11 -15 -46 -5 -36 11 3 5 2 8 -3 5 -5 -4 -27 5 -49 18 -22 13
-47 27 -55 31 -8 3 -17 9 -20 13 -3 3 -30 23 -60 44 -55 40 -112 60 -127 46
-4 -5 -35 -15 -68 -24 -33 -9 -85 -23 -115 -32 -30 -8 -59 -17 -65 -18 -5 -1
-30 -9 -55 -16 -25 -8 -48 -14 -52 -16 -5 -1 -10 -3 -13 -4 -3 -1 -13 -3 -22
-5 -10 -1 -31 -7 -46 -13 -16 -7 -32 -12 -37 -12 -5 0 -44 -11 -87 -24 -43
-14 -91 -27 -106 -30 -16 -3 -47 -11 -70 -19 -65 -22 -110 -36 -137 -41 -14
-3 -41 -10 -60 -15 -19 -6 -39 -11 -45 -11 -13 0 -6 103 7 111 6 4 3 17 -7 33
-11 17 -13 26 -5 26 7 0 9 8 5 21 -5 16 -4 20 6 15 8 -4 6 -1 -3 6 -28 23 -7
42 38 34 33 -5 36 -5 19 6 -11 6 -29 12 -40 13 -15 1 -21 11 -26 38 -3 20 -3
37 0 37 3 0 5 100 4 222 -2 166 1 224 10 230 9 6 9 8 0 8 -15 0 -19 385 -3
395 17 10 11 25 -7 18 -12 -5 -14 -3 -8 6 13 22 14 111 1 111 -6 1 0 10 13 20
15 13 18 20 9 20 -12 0 -15 20 -15 98 -1 60 3 102 10 111 9 12 9 13 0 7 -14
-8 -14 -6 -15 80 -1 48 15 68 63 78 55 13 119 32 125 39 12 12 26 8 18 -5 -6
-10 -4 -10 7 -2 16 13 141 54 164 54 8 0 15 4 15 9 0 5 6 8 13 7 28 -3 156 37
161 51 3 8 11 11 17 7 8 -4 9 -3 5 4 -4 7 -2 12 4 12 6 0 9 3 7 8 -3 4 3 25
14 46 10 22 19 45 19 51 0 7 9 24 20 38 11 14 20 32 20 41 0 8 8 20 18 25 10
6 12 11 4 11 -7 0 -10 5 -7 10 4 6 11 7 17 4 6 -4 9 -1 6 7 -3 8 8 33 23 56
16 23 29 49 29 57 0 9 8 16 20 16 12 0 17 5 14 14 -3 7 6 23 20 34 14 11 26
25 26 31 0 7 7 14 15 17 8 4 15 13 15 21 0 9 6 13 14 10 8 -3 13 1 12 11 0 9
5 16 12 14 8 -1 11 1 8 6 -6 10 69 82 85 82 6 0 9 7 5 15 -3 8 -2 14 2 13 7
-3 88 53 127 87 12 11 29 21 36 23 8 2 21 12 31 22 9 11 19 20 22 20 3 0 41
17 83 37 43 20 81 36 85 35 3 -1 12 5 18 13 7 8 20 15 29 15 9 0 21 4 27 10 5
5 22 11 37 12 15 1 27 6 27 10 0 4 10 8 23 8 12 0 42 7 67 16 25 9 56 18 70
20 14 2 36 6 50 9 14 3 63 8 110 11 47 4 87 8 89 10 4 4 153 -4 226 -12z"/>
<path d="M2206 4051 c-3 -4 -38 -11 -78 -15 -159 -15 -240 -35 -388 -95 -36
-14 -71 -25 -77 -25 -7 1 -10 -2 -7 -7 3 -5 -2 -9 -11 -9 -9 0 -29 -10 -46
-22 -18 -14 -43 -22 -67 -22 -20 1 -29 -1 -19 -3 21 -5 23 -23 2 -23 -8 0 -28
-13 -45 -30 -17 -16 -35 -30 -40 -30 -5 0 -20 -11 -34 -25 -14 -14 -32 -25
-41 -25 -8 0 -14 -6 -12 -12 1 -7 -6 -12 -15 -12 -9 1 -19 -5 -22 -13 -4 -9
-1 -12 7 -8 6 4 1 -3 -13 -14 -14 -12 -33 -19 -42 -17 -10 2 -21 -1 -25 -6 -3
-6 -1 -8 5 -4 6 3 13 2 17 -3 3 -6 -3 -15 -14 -20 -13 -7 -21 -8 -24 -1 -3 6
-4 5 -3 -2 2 -7 10 -12 17 -10 12 3 12 1 1 -10 -11 -11 -16 -10 -28 6 -8 11
-14 15 -14 9 0 -7 5 -15 10 -18 7 -4 7 -13 0 -26 -9 -15 -15 -17 -30 -9 -21
11 -29 -3 -10 -15 6 -3 10 -11 10 -16 0 -6 -4 -8 -9 -5 -5 3 -18 -9 -29 -28
-11 -18 -29 -44 -40 -57 -12 -13 -44 -69 -73 -124 -29 -55 -57 -103 -63 -107
-6 -4 -8 -8 -4 -8 4 0 3 -13 -2 -29 -6 -23 -4 -33 11 -47 17 -16 20 -16 46 2
16 10 32 17 38 15 5 -1 7 0 3 4 -20 20 111 242 141 238 9 -1 11 0 4 3 -20 9
-16 19 22 58 19 20 31 36 28 36 -4 0 9 12 30 26 24 16 36 31 33 40 -3 7 -2 13
2 12 14 -3 42 14 42 26 0 16 42 56 59 56 7 0 10 4 7 8 -3 4 11 16 30 27 19 10
34 22 34 27 0 4 7 8 16 8 8 0 12 5 9 10 -3 6 -1 10 5 10 6 0 18 7 27 15 8 8
18 13 23 10 4 -3 10 2 13 9 4 10 15 13 31 10 14 -2 28 0 31 6 3 5 -2 10 -12
10 -10 1 13 14 52 31 38 16 73 35 77 42 6 9 8 8 8 -3 0 -12 2 -13 9 -1 5 7 14
10 20 7 6 -4 11 -2 11 4 0 6 6 10 13 9 25 -3 38 1 32 11 -4 6 1 7 10 3 10 -3
21 0 26 8 6 9 9 10 9 2 0 -8 13 -5 36 9 36 21 37 21 52 2 14 -19 14 -19 10 1
-4 17 1 20 31 22 27 2 32 0 21 -7 -11 -7 -11 -10 -2 -10 7 0 15 6 18 13 5 15
2 15 104 22 129 10 240 6 240 -8 0 -5 6 -4 14 2 9 8 16 8 20 2 4 -6 13 -8 21
-5 8 3 22 -1 31 -10 8 -9 21 -13 27 -9 7 4 4 10 -9 15 -13 6 -10 7 11 2 17 -3
37 -12 46 -20 18 -16 33 -19 24 -4 -3 6 3 10 14 10 12 0 21 -6 21 -14 0 -16
-27 -29 -43 -20 -7 3 -3 -2 8 -11 14 -12 16 -19 8 -22 -7 -3 -13 -9 -13 -15 0
-6 6 -5 15 2 9 7 14 19 11 27 -3 7 1 13 9 13 8 0 15 5 15 11 0 17 60 2 76 -19
7 -9 14 -12 14 -5 0 14 40 5 59 -14 7 -8 26 -17 42 -20 16 -3 40 -16 53 -30
13 -13 26 -20 28 -15 1 5 22 -1 45 -14 24 -12 37 -24 30 -27 -6 -2 2 -8 18
-12 17 -4 37 -13 45 -20 22 -18 47 -14 71 11 l22 23 -31 30 c-16 17 -32 27
-36 24 -3 -4 -6 -2 -6 4 0 6 -12 16 -27 22 -61 25 -107 63 -95 77 4 5 0 3 -9
-4 -14 -10 -20 -10 -33 3 -9 9 -16 14 -16 10 0 -3 -10 -1 -21 6 -14 7 -18 14
-11 18 6 4 7 12 3 20 -6 9 -10 7 -14 -10 -5 -19 -8 -21 -22 -9 -9 8 -26 15
-38 15 -11 1 -23 7 -25 13 -2 7 -8 12 -13 12 -6 0 -7 -4 -4 -10 3 -6 -1 -7 -9
-4 -9 3 -14 9 -11 14 2 4 -10 8 -28 9 -18 2 -40 3 -49 4 -10 1 -18 5 -18 9 0
4 -7 8 -15 8 -8 0 -15 5 -15 10 0 6 -7 10 -16 10 -8 0 -12 -4 -9 -10 3 -5 1
-10 -4 -10 -6 0 -11 4 -11 8 0 5 -12 9 -27 9 -16 0 -65 5 -110 11 -45 6 -109
10 -142 7 -36 -2 -59 0 -56 6 4 5 4 9 1 9 -3 0 -7 -4 -10 -9z m349 -60 c177
-39 339 -105 484 -197 71 -46 73 -48 49 -56 -21 -7 -36 -3 -80 25 -400 256
-917 283 -1341 71 -272 -136 -483 -347 -620 -619 -23 -47 -44 -75 -61 -83 -14
-6 -26 -8 -26 -4 0 4 24 54 53 112 211 420 611 704 1082 769 108 15 355 5 460
-18z"/>
<path d="M2685 4010 c-3 -5 -1 -10 4 -10 6 0 11 5 11 10 0 6 -2 10 -4 10 -3 0
-8 -4 -11 -10z"/>
<path d="M2240 3940 c0 -5 5 -10 11 -10 5 0 7 5 4 10 -3 6 -8 10 -11 10 -2 0
-4 -4 -4 -10z"/>
<path d="M2112 3910 c0 -14 2 -19 5 -12 2 6 2 18 0 25 -3 6 -5 1 -5 -13z"/>
<path d="M2168 3923 c7 -3 16 -2 19 1 4 3 -2 6 -13 5 -11 0 -14 -3 -6 -6z"/>
<path d="M3955 3912 c-27 -8 -57 -18 -66 -22 -26 -13 -142 -43 -171 -44 -14
-1 -25 -3 -23 -6 3 -5 -137 -49 -175 -56 -3 0 -12 -3 -20 -6 -47 -17 -130 -38
-149 -38 -12 0 -20 -3 -18 -7 3 -5 -11 -9 -30 -11 -19 -1 -40 -5 -47 -9 -6 -4
-13 -8 -16 -8 -3 0 -37 -11 -76 -23 -40 -12 -85 -23 -101 -25 -16 -2 -33 -6
-39 -10 -21 -12 -100 -37 -121 -37 -12 0 -24 -4 -27 -9 -3 -5 -18 -11 -33 -14
-66 -12 -161 -39 -327 -93 -26 -8 -55 -17 -65 -19 -20 -4 -114 -30 -158 -44
-18 -5 -33 -7 -33 -4 0 3 -6 1 -12 -5 -10 -8 -48 -19 -88 -27 -5 -1 -68 -20
-188 -56 -35 -11 -67 -17 -72 -14 -6 4 -10 2 -10 -3 0 -5 -15 -13 -32 -17 -18
-4 -37 -9 -43 -10 -5 -2 -28 -8 -50 -14 -115 -30 -234 -64 -264 -77 -18 -8
-42 -14 -52 -14 -10 0 -53 -11 -95 -25 -42 -14 -81 -22 -87 -18 -5 3 -7 1 -4
-4 4 -6 -13 -15 -41 -21 -26 -6 -74 -18 -107 -28 -33 -9 -70 -17 -82 -18 -12
0 -19 -3 -17 -5 6 -6 -93 -34 -123 -35 -11 -1 -19 -4 -16 -8 2 -5 -4 -8 -14
-9 -10 0 -25 -2 -33 -5 -120 -32 -176 -50 -178 -56 -2 -5 -7 -6 -12 -3 -4 3
-23 -1 -41 -9 -19 -8 -47 -16 -64 -18 -16 -1 -36 -9 -43 -15 -7 -7 -24 -13
-36 -13 -20 0 -49 -24 -71 -59 -6 -10 -4 -12 4 -6 8 4 21 -1 32 -14 12 -12 15
-21 8 -21 -7 0 -10 -2 -8 -5 7 -6 72 17 81 29 4 6 14 4 24 -5 11 -9 15 -9 10
-1 -4 7 -1 12 8 12 9 0 16 -4 16 -10 0 -5 8 -10 18 -10 13 0 14 2 3 9 -20 13
-4 31 28 31 15 0 32 5 39 12 12 12 33 18 62 20 8 0 21 5 28 11 10 8 16 7 23
-4 6 -10 9 -10 9 -1 0 6 6 12 14 12 8 0 17 6 19 13 3 6 6 3 7 -8 1 -18 1 -19
11 -2 5 9 19 17 29 17 10 0 21 4 24 8 3 5 19 9 36 10 17 0 37 6 45 12 10 8 14
7 18 -7 4 -16 5 -16 6 -1 1 23 50 36 62 17 7 -11 9 -11 9 3 0 13 16 22 58 33
31 9 74 22 95 30 20 7 37 10 37 5 0 -4 22 3 50 16 34 16 58 22 80 18 19 -4 30
-2 30 5 0 6 6 11 13 11 8 0 27 6 43 14 16 8 63 22 104 32 41 11 77 21 80 24 3
3 18 5 33 5 15 -1 33 5 39 12 12 15 32 7 22 -9 -8 -13 36 10 54 29 8 7 22 11
32 8 17 -5 74 18 65 27 -3 2 4 4 16 3 11 -1 25 -8 30 -16 8 -10 8 -7 3 11 -7
24 -6 24 19 7 31 -20 37 -21 37 -6 0 5 -4 7 -10 4 -5 -3 -10 -2 -10 4 0 5 17
15 38 22 20 6 42 15 48 20 6 5 24 10 40 12 17 2 36 7 43 11 8 5 17 3 22 -5 6
-10 9 -11 9 -1 0 6 7 12 15 12 8 0 15 6 15 13 0 8 4 7 10 -3 5 -8 10 -10 10
-4 0 12 53 28 83 25 9 -1 17 3 17 8 0 6 3 10 8 9 4 -1 27 5 52 12 25 7 50 14
55 15 25 3 65 18 65 24 0 3 10 7 23 7 22 2 98 21 127 32 45 17 104 29 125 24
19 -3 25 0 25 12 0 10 4 14 10 11 5 -3 24 2 41 10 17 9 40 15 50 12 11 -3 19
-1 19 3 0 8 20 14 85 26 16 3 35 10 42 16 7 6 13 7 13 2 0 -4 5 -3 11 3 6 6
17 9 24 7 7 -3 16 -1 20 5 9 16 28 13 22 -3 -4 -10 -1 -13 8 -10 8 3 12 11 9
18 -6 15 47 29 73 19 10 -4 14 -2 10 4 -11 17 32 23 48 6 15 -15 21 -5 7 12
-4 6 -6 9 -4 8 2 -1 15 3 29 8 18 7 30 6 41 -3 10 -8 13 -8 9 -2 -8 13 15 26
51 30 13 2 30 8 38 15 8 6 25 8 39 5 17 -4 27 -2 31 8 3 8 12 17 21 20 12 5
14 1 9 -19 -5 -18 -2 -25 9 -25 8 0 15 -5 15 -12 0 -6 3 -9 6 -6 3 3 0 15 -8
27 -11 18 -10 22 7 35 11 8 27 12 37 11 10 -2 18 0 18 4 0 8 9 10 55 14 14 1
25 5 25 10 0 4 3 6 8 5 12 -2 66 14 79 24 7 5 16 7 20 5 5 -3 46 7 91 23 45
16 82 27 82 24 0 -3 8 2 18 12 9 10 16 20 15 23 -1 3 3 12 9 19 6 7 9 14 7 15
-2 1 -13 9 -24 18 -18 14 -25 14 -70 1z m63 -34 c-3 -22 -46 -36 -493 -162
-143 -41 -1231 -353 -1360 -391 -49 -14 -144 -41 -210 -60 -66 -18 -331 -94
-590 -168 -866 -250 -927 -267 -932 -267 -2 0 -3 10 -1 21 3 19 27 29 188 75
102 29 493 141 870 249 377 109 699 201 715 205 17 4 89 24 160 45 292 85
1641 473 1648 474 5 0 7 -9 5 -21z m-2171 -674 c-3 -3 -12 -4 -19 -1 -8 3 -5
6 6 6 11 1 17 -2 13 -5z m-87 -24 c0 -5 -5 -10 -11 -10 -5 0 -7 5 -4 10 3 6 8
10 11 10 2 0 4 -4 4 -10z"/>
<path d="M2247 3903 c-12 -12 -7 -22 8 -17 8 4 15 10 15 15 0 11 -14 12 -23 2z"/>
<path d="M2511 3884 c0 -11 3 -14 6 -6 3 7 2 16 -1 19 -3 4 -6 -2 -5 -13z"/>
<path d="M2535 3890 c3 -5 8 -10 11 -10 2 0 4 5 4 10 0 6 -5 10 -11 10 -5 0
-7 -4 -4 -10z"/>
<path d="M4096 3887 c3 -10 9 -15 12 -12 3 3 0 11 -7 18 -10 9 -11 8 -5 -6z"/>
<path d="M2210 3880 c0 -5 5 -10 11 -10 5 0 7 5 4 10 -3 6 -8 10 -11 10 -2 0
-4 -4 -4 -10z"/>
<path d="M2371 3874 c0 -11 3 -14 6 -6 3 7 2 16 -1 19 -3 4 -6 -2 -5 -13z"/>
<path d="M1915 3870 c3 -5 8 -10 11 -10 2 0 4 5 4 10 0 6 -5 10 -11 10 -5 0
-7 -4 -4 -10z"/>
<path d="M2075 3870 c3 -5 8 -10 11 -10 2 0 4 5 4 10 0 6 -5 10 -11 10 -5 0
-7 -4 -4 -10z"/>
<path d="M2120 3859 c0 -5 5 -7 10 -4 6 3 10 8 10 11 0 2 -4 4 -10 4 -5 0 -10
-5 -10 -11z"/>
<path d="M2451 3861 c-8 -5 -9 -11 -3 -15 5 -3 12 1 16 9 6 17 6 18 -13 6z"/>
<path d="M1960 3850 c0 -5 5 -10 10 -10 6 0 10 5 10 10 0 6 -4 10 -10 10 -5 0
-10 -4 -10 -10z"/>
<path d="M3005 3850 c3 -5 10 -10 16 -10 5 0 9 5 9 10 0 6 -7 10 -16 10 -8 0
-12 -4 -9 -10z"/>
<path d="M4145 3850 c-3 -5 -1 -10 4 -10 6 0 11 5 11 10 0 6 -2 10 -4 10 -3 0
-8 -4 -11 -10z"/>
<path d="M2220 3840 c20 -13 33 -13 25 0 -3 6 -14 10 -23 10 -15 0 -15 -2 -2
-10z"/>
<path d="M2501 3841 c-1 -8 -9 -20 -18 -27 -10 -7 -13 -14 -7 -14 17 0 37 27
31 42 -4 10 -6 10 -6 -1z"/>
<path d="M2170 3830 c0 -5 5 -10 10 -10 6 0 10 5 10 10 0 6 -4 10 -10 10 -5 0
-10 -4 -10 -10z"/>
<path d="M2406 3825 c4 -8 8 -15 10 -15 2 0 4 7 4 15 0 8 -4 15 -10 15 -5 0
-7 -7 -4 -15z"/>
<path d="M2538 3828 c10 -13 11 -22 2 -38 -6 -12 -9 -24 -6 -28 3 -3 6 0 6 6
0 6 7 17 15 25 12 13 11 17 -8 33 -17 15 -19 15 -9 2z"/>
<path d="M2110 3821 c0 -6 4 -13 10 -16 6 -3 7 1 4 9 -7 18 -14 21 -14 7z"/>
<path d="M2450 3819 c0 -5 5 -7 10 -4 6 3 10 8 10 11 0 2 -4 4 -10 4 -5 0 -10
-5 -10 -11z"/>
<path d="M2785 3820 c-3 -5 -2 -10 4 -10 5 0 13 5 16 10 3 6 2 10 -4 10 -5 0
-13 -4 -16 -10z"/>
<path d="M2670 3810 c-12 -7 -10 -9 8 -7 12 0 22 5 22 9 0 11 -12 10 -30 -2z"/>
<path d="M2146 3795 c-11 -8 -15 -15 -9 -15 6 0 16 7 23 15 16 19 11 19 -14 0z"/>
<path d="M2510 3800 c-8 -5 -12 -12 -9 -15 4 -3 12 1 19 10 14 17 11 19 -10 5z"/>
<path d="M2750 3806 c0 -2 7 -7 16 -10 8 -3 12 -2 9 4 -6 10 -25 14 -25 6z"/>
<path d="M4105 3800 c-3 -5 -1 -10 4 -10 6 0 11 5 11 10 0 6 -2 10 -4 10 -3 0
-8 -4 -11 -10z"/>
<path d="M1686 3791 c-4 -7 -5 -15 -2 -18 9 -9 19 4 14 18 -4 11 -6 11 -12 0z"/>
<path d="M1818 3793 c7 -3 16 -2 19 1 4 3 -2 6 -13 5 -11 0 -14 -3 -6 -6z"/>
<path d="M2440 3790 c0 -5 5 -10 11 -10 5 0 7 5 4 10 -3 6 -8 10 -11 10 -2 0
-4 -4 -4 -10z"/>
<path d="M2800 3790 c0 -5 5 -10 11 -10 5 0 7 5 4 10 -3 6 -8 10 -11 10 -2 0
-4 -4 -4 -10z"/>
<path d="M2186 3772 c-3 -5 1 -9 9 -9 8 0 12 4 9 9 -3 4 -7 8 -9 8 -2 0 -6 -4
-9 -8z"/>
<path d="M2245 3770 c3 -5 8 -10 11 -10 2 0 4 5 4 10 0 6 -5 10 -11 10 -5 0
-7 -4 -4 -10z"/>
<path d="M3980 3769 c0 -5 5 -7 10 -4 6 3 10 8 10 11 0 2 -4 4 -10 4 -5 0 -10
-5 -10 -11z"/>
<path d="M4115 3770 c-3 -5 -1 -10 4 -10 6 0 11 5 11 10 0 6 -2 10 -4 10 -3 0
-8 -4 -11 -10z"/>
<path d="M2120 3760 c0 -6 4 -9 9 -6 5 4 12 1 14 -4 3 -6 4 -5 3 2 -3 15 -26
23 -26 8z"/>
<path d="M2270 3766 c0 -2 7 -9 15 -16 9 -7 15 -8 15 -2 0 5 -7 12 -15 16 -8
3 -15 4 -15 2z"/>
<path d="M2710 3761 c0 -5 -8 -12 -17 -14 -15 -4 -15 -5 -2 -6 9 0 22 6 29 14
9 10 9 15 1 15 -6 0 -11 -4 -11 -9z"/>
<path d="M2050 3749 c0 -5 5 -7 10 -4 6 3 10 8 10 11 0 2 -4 4 -10 4 -5 0 -10
-5 -10 -11z"/>
<path d="M3890 3750 c0 -4 9 -10 20 -13 11 -3 20 -2 20 3 0 4 -9 10 -20 13
-11 3 -20 2 -20 -3z"/>
<path d="M1990 3743 c0 -2 6 -11 14 -18 12 -12 15 -12 19 -1 3 8 -2 16 -14 19
-10 3 -19 3 -19 0z"/>
<path d="M2515 3740 c-3 -5 -1 -10 4 -10 6 0 11 5 11 10 0 6 -2 10 -4 10 -3 0
-8 -4 -11 -10z"/>
<path d="M2627 3733 c3 -7 6 -13 8 -13 2 0 5 6 8 13 3 8 -1 14 -8 14 -7 0 -11
-6 -8 -14z"/>
<path d="M3820 3740 c0 -5 5 -10 11 -10 5 0 7 5 4 10 -3 6 -8 10 -11 10 -2 0
-4 -4 -4 -10z"/>
<path d="M2250 3726 c0 -9 5 -16 10 -16 6 0 10 4 10 9 0 6 -4 13 -10 16 -5 3
-10 -1 -10 -9z"/>
<path d="M2046 3714 c-8 -20 0 -32 14 -18 5 5 5 15 1 22 -6 11 -10 10 -15 -4z"/>
<path d="M2185 3720 c3 -5 8 -10 11 -10 2 0 4 5 4 10 0 6 -5 10 -11 10 -5 0
-7 -4 -4 -10z"/>
<path d="M3780 3714 c0 -8 5 -12 10 -9 6 4 8 11 5 16 -9 14 -15 11 -15 -7z"/>
<path d="M1971 3704 c0 -11 3 -14 6 -6 3 7 2 16 -1 19 -3 4 -6 -2 -5 -13z"/>
<path d="M2131 3708 c-1 -20 5 -21 34 -7 19 9 19 9 -2 5 -12 -2 -24 1 -27 8
-2 6 -5 3 -5 -6z"/>
<path d="M2215 3710 c-3 -6 1 -7 9 -4 18 7 21 14 7 14 -6 0 -13 -4 -16 -10z"/>
<path d="M2495 3710 c3 -5 8 -10 11 -10 2 0 4 5 4 10 0 6 -5 10 -11 10 -5 0
-7 -4 -4 -10z"/>
<path d="M2576 3711 c-3 -5 1 -11 9 -14 9 -4 12 -1 8 9 -6 16 -10 17 -17 5z"/>
<path d="M3755 3709 c-4 -6 -5 -12 -2 -15 2 -3 7 2 10 11 7 17 1 20 -8 4z"/>
<path d="M3810 3710 c0 -5 5 -10 10 -10 6 0 10 5 10 10 0 6 -4 10 -10 10 -5 0
-10 -4 -10 -10z"/>
<path d="M2450 3700 c0 -5 5 -10 11 -10 5 0 7 5 4 10 -3 6 -8 10 -11 10 -2 0
-4 -4 -4 -10z"/>
<path d="M3711 3694 c0 -11 3 -14 6 -6 3 7 2 16 -1 19 -3 4 -6 -2 -5 -13z"/>
<path d="M2220 3690 c-8 -5 -10 -10 -5 -10 6 0 17 5 25 10 8 5 11 10 5 10 -5
0 -17 -5 -25 -10z"/>
<path d="M1270 3681 c0 -5 5 -13 10 -16 6 -3 10 -2 10 4 0 5 -4 13 -10 16 -5
3 -10 2 -10 -4z"/>
<path d="M1925 3680 c-3 -5 -1 -10 4 -10 6 0 11 5 11 10 0 6 -2 10 -4 10 -3 0
-8 -4 -11 -10z"/>
<path d="M2326 3663 c-6 -14 -5 -15 5 -6 7 7 10 15 7 18 -3 3 -9 -2 -12 -12z"/>
<path d="M3596 3667 c3 -10 9 -15 12 -12 3 3 0 11 -7 18 -10 9 -11 8 -5 -6z"/>
<path d="M2018 3663 c7 -3 16 -2 19 1 4 3 -2 6 -13 5 -11 0 -14 -3 -6 -6z"/>
<path d="M2480 3649 c0 -5 5 -7 10 -4 6 3 10 8 10 11 0 2 -4 4 -10 4 -5 0 -10
-5 -10 -11z"/>
<path d="M2710 3645 c0 -8 2 -15 4 -15 2 0 6 7 10 15 3 8 1 15 -4 15 -6 0 -10
-7 -10 -15z"/>
<path d="M3460 3650 c0 -5 5 -10 11 -10 5 0 7 5 4 10 -3 6 -8 10 -11 10 -2 0
-4 -4 -4 -10z"/>
<path d="M2260 3643 c1 -8 50 -47 50 -40 0 2 -8 14 -19 25 -19 22 -31 28 -31
15z"/>
<path d="M3740 3627 c-12 -21 -12 -21 6 -7 10 8 20 15 22 16 2 1 -1 4 -5 7 -5
3 -15 -4 -23 -16z"/>
<path d="M1470 3631 c0 -6 4 -13 10 -16 6 -3 7 1 4 9 -7 18 -14 21 -14 7z"/>
<path d="M3436 3626 c3 -9 11 -16 16 -16 13 0 5 23 -10 28 -7 2 -10 -2 -6 -12z"/>
<path d="M3548 3633 c7 -3 16 -2 19 1 4 3 -2 6 -13 5 -11 0 -14 -3 -6 -6z"/>
<path d="M1536 3614 c-5 -14 -4 -15 9 -4 17 14 19 20 6 20 -5 0 -12 -7 -15
-16z"/>
<path d="M3600 3626 c0 -2 7 -7 16 -10 8 -3 12 -2 9 4 -6 10 -25 14 -25 6z"/>
<path d="M2250 3610 c0 -5 5 -10 11 -10 5 0 7 5 4 10 -3 6 -8 10 -11 10 -2 0
-4 -4 -4 -10z"/>
<path d="M2355 3609 c-11 -16 -1 -19 13 -3 7 8 8 14 3 14 -5 0 -13 -5 -16 -11z"/>
<path d="M2505 3610 c-3 -5 -1 -10 4 -10 6 0 11 5 11 10 0 6 -2 10 -4 10 -3 0
-8 -4 -11 -10z"/>
<path d="M3472 3608 c2 -5 8 -9 13 -9 5 0 11 4 13 9 1 5 -4 9 -13 9 -9 0 -14
-4 -13 -9z"/>
<path d="M3570 3608 c0 -9 5 -20 10 -23 13 -8 13 5 0 25 -8 13 -10 13 -10 -2z"/>
<path d="M1950 3600 c0 -5 5 -10 11 -10 5 0 7 5 4 10 -3 6 -8 10 -11 10 -2 0
-4 -4 -4 -10z"/>
<path d="M1455 3590 c3 -5 8 -10 11 -10 2 0 4 5 4 10 0 6 -5 10 -11 10 -5 0
-7 -4 -4 -10z"/>
<path d="M1493 3589 c9 -5 17 -18 18 -27 0 -11 2 -12 6 -4 6 15 -14 42 -31 42
-6 0 -3 -5 7 -11z"/>
<path d="M3645 3590 c3 -5 11 -10 16 -10 6 0 7 5 4 10 -3 6 -11 10 -16 10 -6
0 -7 -4 -4 -10z"/>
<path d="M2047 3579 c7 -7 15 -10 18 -7 3 3 -2 9 -12 12 -14 6 -15 5 -6 -5z"/>
<path d="M2200 3586 c0 -2 7 -7 16 -10 8 -3 12 -2 9 4 -6 10 -25 14 -25 6z"/>
<path d="M3305 3578 c-58 -17 -70 -20 -87 -21 -9 -1 -15 -4 -12 -8 2 -4 -3
-12 -11 -19 -7 -6 -11 -19 -8 -27 4 -11 2 -14 -5 -9 -8 5 -10 2 -6 -8 4 -10 1
-16 -7 -16 -11 0 -11 -2 0 -9 9 -6 15 -28 17 -55 1 -28 -2 -43 -8 -40 -7 4 -7
-2 -2 -17 5 -13 8 -58 7 -99 -1 -115 -1 -113 -17 -98 -10 9 -11 17 -4 26 8 9
6 17 -8 28 -10 9 -12 12 -4 8 13 -7 13 -5 1 9 -10 12 -10 21 -3 30 12 14 -2
46 -15 34 -4 -5 -1 -12 6 -16 9 -6 10 -11 2 -15 -12 -8 -28 21 -17 31 3 4 -1
17 -9 30 -9 13 -13 23 -10 23 3 0 -1 16 -9 35 -8 19 -13 35 -11 35 2 0 -2 12
-10 26 -7 15 -11 32 -9 39 5 13 -24 30 -34 20 -3 -3 0 -5 6 -5 7 0 12 -5 12
-10 0 -7 -6 -7 -20 0 -12 7 -17 16 -13 27 5 12 0 11 -23 -6 -16 -12 -43 -22
-60 -24 -21 -1 -30 -6 -27 -14 3 -7 0 -13 -7 -13 -7 0 -10 -7 -6 -15 3 -8 1
-15 -5 -15 -5 0 -7 -11 -3 -27 6 -21 4 -25 -9 -20 -11 4 -14 2 -10 -9 3 -7 13
-14 22 -14 9 0 12 -3 6 -8 -13 -9 -17 -62 -4 -62 5 0 9 -4 9 -10 0 -5 -7 -7
-15 -4 -9 4 -15 0 -15 -10 0 -9 5 -16 10 -16 14 0 13 -77 -1 -86 -8 -5 -8 -9
1 -14 9 -6 9 -13 1 -28 -7 -13 -7 -23 -2 -27 12 -7 10 -375 -2 -375 -5 0 -5
-6 0 -12 11 -17 11 -170 1 -160 -5 5 -10 23 -13 41 -2 18 -7 46 -10 63 -5 21
-4 28 4 24 6 -4 11 -2 11 3 0 6 -7 11 -16 11 -12 0 -15 6 -10 24 3 13 2 26 -4
28 -5 2 -12 28 -16 58 -3 30 -9 59 -12 64 -2 5 -11 43 -19 85 -17 95 -17 93
-26 109 -5 7 -3 12 3 12 7 0 8 6 0 19 -13 25 -13 44 0 36 6 -3 10 1 10 9 0 9
-6 15 -12 14 -8 -2 -13 7 -13 22 0 14 -4 28 -8 31 -5 3 -10 26 -12 50 -2 24
-8 59 -14 78 -7 24 -7 38 0 47 8 10 5 11 -13 6 -19 -5 -21 -3 -11 9 11 13 6
15 -30 13 -57 -3 -94 -19 -102 -44 -3 -11 -10 -18 -15 -15 -5 3 -12 0 -16 -6
-4 -7 -3 -9 3 -6 7 4 10 -5 9 -23 0 -17 -4 -30 -7 -30 -4 0 -6 -6 -6 -12 1
-14 -7 -63 -23 -138 -5 -25 -12 -63 -15 -85 -4 -22 -11 -62 -16 -90 -5 -27
-10 -58 -10 -68 0 -9 -4 -15 -9 -12 -6 4 -7 -7 -4 -24 3 -16 1 -46 -6 -67 -7
-21 -13 -51 -12 -66 0 -15 -3 -28 -8 -28 -4 0 -8 -22 -8 -50 -1 -49 -15 -90
-31 -90 -5 0 -8 18 -7 39 0 22 3 38 6 36 3 -2 5 8 4 23 -4 43 -33 103 -67 134
-29 28 -30 30 -15 56 19 31 48 128 47 157 0 11 1 43 1 70 0 28 -4 65 -9 83 -8
26 -7 33 2 29 7 -3 13 3 13 14 0 14 -3 15 -13 7 -16 -13 -42 15 -43 47 -1 19
-2 19 -9 1 -5 -14 -10 -16 -15 -8 -4 7 -4 17 0 23 3 6 -1 10 -12 9 -45 -5 -98
1 -86 9 9 5 3 8 -17 7 -27 -1 -29 -3 -14 -13 21 -16 17 -20 -27 -25 -19 -3
-43 -8 -53 -12 -10 -5 -24 -3 -33 5 -13 11 -15 11 -12 -2 1 -7 1 -14 -2 -15
-24 -4 -50 -29 -50 -48 0 -13 -10 -36 -22 -52 -15 -19 -17 -24 -5 -15 10 8 21
11 24 7 4 -4 1 -11 -7 -16 -13 -9 -7 -14 12 -11 4 0 2 -10 -4 -24 -14 -30 -34
-22 -69 29 -13 20 -30 34 -36 31 -7 -2 -19 5 -27 16 -9 14 -16 17 -21 9 -4 -7
-16 -9 -27 -7 -10 3 -49 -3 -84 -13 -36 -10 -61 -13 -55 -7 6 6 11 15 11 20 0
5 -9 -2 -21 -17 -21 -26 -46 -37 -33 -13 4 6 -2 2 -14 -9 -11 -12 -27 -24 -34
-26 -7 -3 -12 -18 -10 -37 2 -23 -1 -31 -10 -28 -7 2 -12 11 -10 20 3 17 -36
49 -50 41 -5 -3 -15 0 -23 6 -11 9 -15 9 -15 1 0 -6 5 -11 11 -11 5 0 7 -5 4
-10 -4 -6 -10 -8 -15 -5 -5 3 -11 1 -15 -5 -4 -6 -10 -8 -14 -5 -13 8 -61 -46
-62 -69 0 -11 0 -68 -1 -126 0 -58 -5 -111 -10 -117 -7 -9 -7 -13 1 -13 13 0
6 -58 -11 -77 -7 -9 -7 -13 0 -13 6 0 13 6 16 13 2 6 4 -104 4 -245 -1 -200
-5 -258 -14 -258 -7 0 -17 -8 -23 -17 -8 -14 -14 -16 -28 -7 -17 10 -18 34
-20 305 -2 223 0 295 10 302 9 7 9 10 0 14 -9 3 -13 37 -13 118 0 109 -1 113
-24 129 -16 10 -27 12 -31 6 -4 -6 -10 -8 -15 -5 -10 6 -41 -5 -36 -14 2 -3
-12 -7 -31 -7 -19 -1 -40 -7 -46 -14 -10 -10 -8 -12 6 -7 21 8 22 0 1 -20 -8
-9 -13 -22 -10 -29 3 -8 0 -14 -6 -14 -7 0 -6 -5 2 -15 14 -17 5 -35 -18 -36
-14 0 -13 -2 3 -8 17 -7 20 -18 22 -82 1 -47 -3 -77 -10 -81 -9 -6 -8 -10 2
-17 10 -7 12 -43 8 -185 -3 -97 -8 -180 -12 -185 -3 -5 -1 -12 4 -15 12 -8 11
-55 -1 -62 -6 -4 -5 -10 3 -14 10 -7 10 -11 0 -24 -8 -9 -9 -16 -4 -16 5 0 10
-16 11 -35 1 -19 6 -44 12 -54 5 -11 10 -30 10 -43 0 -26 33 -68 70 -88 31
-17 96 -21 130 -8 14 5 35 12 47 14 40 8 73 23 73 34 0 6 5 8 10 5 5 -3 10 -1
10 4 0 6 6 11 14 11 17 0 77 70 70 81 -3 5 2 9 11 9 10 0 15 -5 12 -14 -3 -7
4 -21 14 -30 17 -14 26 -15 60 -6 22 6 45 8 51 4 6 -4 8 -3 5 3 -4 6 5 15 19
22 17 7 24 17 20 27 -3 8 -2 13 3 10 5 -3 8 46 7 109 -1 66 2 115 7 115 5 0 4
6 -2 14 -9 10 -9 16 -1 21 8 5 8 11 -1 21 -9 11 -8 14 4 14 17 0 24 -22 32
-110 3 -36 8 -79 10 -97 4 -27 2 -31 -15 -28 -11 2 -20 0 -20 -6 0 -5 6 -9 14
-9 8 0 18 -9 21 -21 14 -43 85 -38 171 13 25 15 37 16 58 8 18 -6 25 -6 21 0
-9 14 9 12 24 -2 10 -11 12 -10 9 2 -2 10 12 18 46 27 66 16 106 36 142 70 16
15 33 26 37 25 5 -1 6 2 3 6 -3 5 5 21 17 36 12 14 29 46 36 70 7 25 19 47 27
50 10 4 12 2 8 -6 -4 -6 -9 -29 -11 -52 -2 -22 -7 -42 -11 -46 -4 -3 -8 -16
-10 -29 -1 -14 0 -22 4 -18 3 3 13 0 20 -8 15 -14 60 -15 83 -1 10 7 12 5 6
-5 -8 -12 -6 -12 8 0 9 7 23 11 31 8 10 -4 13 -1 9 9 -3 7 -1 14 5 14 14 0 34
63 34 106 0 19 3 32 7 30 3 -2 7 12 8 32 4 72 6 82 12 77 4 -2 26 5 49 15 23
11 42 14 42 9 0 -6 5 -7 10 -4 6 3 11 -6 12 -22 1 -35 2 -40 13 -83 5 -19 10
-39 11 -45 1 -5 3 -13 4 -17 1 -5 3 -14 4 -20 2 -24 146 -1 146 23 0 6 5 7 12
3 6 -4 8 -3 5 3 -3 5 10 10 31 11 66 3 91 8 110 25 10 10 21 15 24 12 6 -7 12
136 10 268 -1 73 2 97 12 97 7 0 13 -6 13 -12 1 -23 8 -43 17 -50 10 -7 14
-22 18 -70 1 -16 6 -28 11 -28 4 0 5 -4 2 -10 -3 -5 -3 -10 2 -10 15 0 31 -68
19 -81 -8 -9 -7 -10 6 -6 9 3 19 0 22 -9 4 -10 2 -13 -7 -8 -6 4 -2 -4 11 -18
21 -24 27 -25 60 -16 20 6 42 13 47 16 6 4 17 7 25 9 8 1 16 7 18 13 2 5 8 8
12 5 5 -3 6 10 3 30 -5 30 -3 35 13 35 12 0 15 3 8 8 -19 12 -23 70 -5 77 12
5 13 8 2 14 -7 5 -11 14 -10 22 1 8 -2 23 -6 33 -5 11 -4 31 2 46 5 14 6 36 2
48 -5 12 -4 24 2 27 5 4 6 12 2 18 -4 7 -8 80 -8 162 0 137 2 152 20 169 16
15 16 18 3 13 -10 -3 -19 0 -22 9 -3 8 -2 12 3 9 5 -3 12 -1 16 5 3 5 -2 10
-11 10 -13 0 -15 3 -7 11 8 8 8 20 3 35 -6 16 -6 24 1 24 6 0 7 6 3 12 -12 19
-13 52 -2 66 6 7 6 12 1 12 -15 0 -13 73 4 98 8 13 12 26 9 30 -3 3 -6 0 -6
-6 0 -7 -4 -12 -10 -12 -5 0 -10 10 -10 23 0 36 -12 45 -45 35z m25 -536 l0
-518 -56 -18 c-31 -10 -58 -16 -60 -14 -4 5 -86 242 -116 338 -11 36 -27 100
-36 143 -9 42 -19 77 -22 77 -3 0 -4 -135 -2 -299 l4 -299 -28 -15 c-16 -8
-46 -19 -66 -25 l-38 -10 0 513 c0 398 3 515 13 522 12 10 86 33 104 33 8 0
27 -47 39 -95 1 -5 23 -71 48 -145 50 -151 86 -282 86 -317 0 -13 3 -23 8 -23
4 0 7 142 7 316 l0 316 50 18 c28 9 53 18 58 19 4 0 7 -232 7 -517z m-646 311
c3 -10 21 -99 40 -198 20 -99 40 -200 45 -225 6 -25 22 -106 36 -180 15 -74
33 -162 40 -195 7 -33 17 -83 20 -112 l7 -52 -59 -17 c-32 -9 -64 -21 -71 -27
-9 -7 -11 -6 -7 5 5 12 -21 217 -28 225 -4 3 -94 -21 -127 -35 -27 -10 -42
-58 -56 -184 -8 -66 -14 -73 -78 -92 -59 -18 -63 -11 -47 82 7 37 18 101 26
142 7 41 16 89 19 105 3 17 13 68 21 115 8 47 23 135 34 195 21 116 49 273 56
315 19 110 23 120 58 135 43 19 65 18 71 -2z m-394 -154 c34 -40 42 -70 42
-164 0 -97 -24 -182 -62 -223 -26 -28 -25 -42 3 -42 26 0 57 -30 74 -71 16
-38 14 -204 -4 -274 -36 -142 -99 -210 -232 -251 -47 -15 -92 -29 -98 -32 -10
-3 -13 103 -13 512 l0 517 37 15 c20 9 44 18 52 20 9 2 32 8 51 13 59 17 126
7 150 -20z m-415 -122 c48 -48 58 -98 52 -252 -5 -132 -13 -169 -55 -239 -20
-34 -21 -41 -9 -55 46 -52 81 -187 81 -316 l1 -90 -55 -18 c-30 -9 -60 -15
-66 -13 -6 2 -14 46 -18 102 -11 158 -42 264 -78 264 -17 0 -18 -14 -18 -194
0 -143 -3 -196 -12 -203 -10 -8 -103 -43 -114 -43 -6 0 -4 1009 2 1023 3 9 36
25 77 38 40 12 77 23 82 24 6 2 30 4 54 4 36 1 48 -4 76 -32z m-365 -536 l0
-499 -41 -35 c-50 -43 -164 -87 -226 -87 -39 0 -50 5 -78 35 -21 21 -37 52
-43 79 -5 24 -10 231 -11 459 -2 333 0 417 11 423 17 11 76 34 106 41 l22 5 0
-431 0 -431 24 -15 c23 -15 27 -15 65 5 l41 20 0 440 0 440 28 12 c15 6 41 17
57 24 17 8 33 14 38 14 4 0 7 -225 7 -499z m468 434 c-1 -25 -7 -42 -14 -42
-8 0 -11 13 -9 39 2 21 0 38 -5 38 -4 0 -10 7 -13 15 -5 12 -2 12 18 3 21 -9
24 -17 23 -53z m-418 1 c0 -8 -7 -16 -15 -20 -17 -6 -18 -4 -9 18 8 20 24 21
24 2z m-2 -96 c-1 -33 -5 -60 -9 -60 -3 0 -6 27 -6 60 0 33 4 60 9 60 4 0 7
-27 6 -60z m409 8 c-3 -7 -5 -2 -5 12 0 14 2 19 5 13 2 -7 2 -19 0 -25z m13
-28 c0 -5 -5 -10 -11 -10 -5 0 -7 5 -4 10 3 6 8 10 11 10 2 0 4 -4 4 -10z m-5
-290 c1 -157 -3 -254 -8 -244 -13 22 -16 64 -5 64 5 0 6 5 3 10 -4 6 -11 7
-17 4 -7 -4 -8 -2 -4 4 4 6 -2 29 -14 51 -11 22 -20 47 -20 55 0 8 -6 16 -12
19 -10 3 -10 7 -1 17 6 7 9 19 6 26 -3 8 1 16 9 19 8 3 14 16 13 28 -1 12 4
30 11 41 7 10 10 25 7 34 -5 11 -3 13 8 7 11 -7 11 -5 -1 10 -11 14 -12 17 -1
11 9 -6 12 -5 9 5 -3 8 -1 25 4 38 6 17 5 27 -3 32 -11 7 -5 29 9 29 4 0 7
-117 7 -260z m-421 225 c-4 -8 -10 -12 -15 -9 -11 6 -2 24 11 24 5 0 7 -7 4
-15z m4 -160 c-1 -90 -5 -135 -12 -135 -8 0 -10 42 -8 135 2 74 7 135 12 135
5 0 8 -61 8 -135z m847 -117 c-3 -7 -6 -31 -8 -53 -2 -21 -9 -41 -15 -43 -7
-2 -11 7 -10 22 1 14 6 26 10 26 4 0 5 14 2 30 -5 23 -3 30 9 30 9 0 14 -6 12
-12z m-848 -238 c1 -110 -2 -200 -7 -200 -6 0 -16 280 -11 348 0 6 1 23 2 37
1 14 4 23 7 20 3 -3 7 -95 9 -205z"/>
<path d="M2615 3008 c-9 -106 -32 -278 -41 -301 -7 -20 -2 -21 51 -6 62 17 65
22 49 82 -8 29 -19 109 -26 180 -7 70 -15 127 -19 127 -4 0 -10 -37 -14 -82z
m31 -229 c1 -40 -4 -59 -18 -59 -5 0 -6 5 -3 10 3 6 1 10 -5 10 -6 0 -10 12
-8 28 2 17 8 26 17 24 12 -3 12 -1 0 14 -12 15 -12 17 1 12 9 -3 15 -18 16
-39z"/>
<path d="M2148 3083 c-16 -4 -18 -19 -18 -143 0 -117 2 -138 14 -134 36 14 50
57 51 156 0 103 -10 129 -47 121z m22 -58 c0 -25 -15 -24 -16 1 -1 13 2 21 7
18 5 -3 9 -11 9 -19z m6 -33 c-3 -5 -6 -26 -8 -46 -1 -21 -6 -40 -11 -43 -5
-3 -6 13 -2 38 8 45 12 59 21 59 3 0 3 -4 0 -8z"/>
<path d="M2143 2673 c-10 -3 -13 -49 -13 -179 0 -96 3 -174 8 -174 4 0 17 7
29 15 28 20 43 91 43 205 0 125 -15 155 -67 133z m36 -60 c6 -74 6 -145 -1
-149 -3 -2 -4 -12 -2 -22 3 -9 0 -28 -5 -42 -8 -19 -10 -20 -9 -5 2 11 -1 25
-5 32 -4 6 -3 23 3 38 5 14 6 24 2 21 -12 -7 -9 148 3 156 5 4 10 8 10 8 1 0
2 -17 4 -37z"/>
<path d="M1728 2963 c-16 -4 -18 -21 -18 -178 l0 -174 23 8 c42 15 57 65 57
191 0 88 -4 121 -16 138 -8 12 -18 21 -22 21 -4 -1 -15 -3 -24 -6z m36 -61 c6
-35 1 -169 -9 -212 -7 -30 -9 -32 -15 -15 -4 11 -3 26 2 33 7 8 7 12 1 12 -6
0 -10 32 -9 74 0 62 3 73 16 68 12 -5 13 -3 3 9 -19 23 -24 69 -8 63 8 -3 16
-18 19 -32z"/>
<path d="M3816 3574 c-5 -14 -4 -15 9 -4 17 14 19 20 6 20 -5 0 -12 -7 -15
-16z"/>
<path d="M3471 3564 c0 -11 3 -14 6 -6 3 7 2 16 -1 19 -3 4 -6 -2 -5 -13z"/>
<path d="M3560 3560 c-9 -6 -10 -10 -3 -10 6 0 15 5 18 10 8 12 4 12 -15 0z"/>
<path d="M1365 3550 c-3 -5 -2 -18 4 -27 7 -14 9 -12 8 10 -2 30 -3 31 -12 17z"/>
<path d="M2087 3549 c7 -7 15 -10 18 -7 3 3 -2 9 -12 12 -14 6 -15 5 -6 -5z"/>
<path d="M2255 3549 c-4 -6 -5 -12 -2 -15 2 -3 7 2 10 11 7 17 1 20 -8 4z"/>
<path d="M2396 3548 c3 -4 9 -8 15 -8 5 0 9 4 9 8 0 5 -7 9 -15 9 -8 0 -12 -4
-9 -9z"/>
<path d="M3451 3544 c0 -11 3 -14 6 -6 3 7 2 16 -1 19 -3 4 -6 -2 -5 -13z"/>
<path d="M3635 3550 c-3 -6 1 -7 9 -4 18 7 21 14 7 14 -6 0 -13 -4 -16 -10z"/>
<path d="M3724 3539 c0 -10 2 -16 5 -14 2 3 11 -1 19 -8 13 -10 14 -9 4 9 -6
12 -9 23 -7 26 3 3 -1 5 -8 5 -7 0 -13 -8 -13 -18z"/>
<path d="M2175 3540 c3 -5 8 -10 11 -10 2 0 4 5 4 10 0 6 -5 10 -11 10 -5 0
-7 -4 -4 -10z"/>
<path d="M1392 3520 c0 -14 2 -19 5 -12 2 6 2 18 0 25 -3 6 -5 1 -5 -13z"/>
<path d="M3410 3520 c6 -11 13 -20 16 -20 2 0 0 9 -6 20 -6 11 -13 20 -16 20
-2 0 0 -9 6 -20z"/>
<path d="M3523 3533 c-13 -2 -23 -8 -23 -13 0 -10 38 -1 46 11 3 5 4 8 2 8 -2
-1 -13 -4 -25 -6z"/>
<path d="M3617 3529 c7 -7 15 -10 18 -7 3 3 -2 9 -12 12 -14 6 -15 5 -6 -5z"/>
<path d="M4070 3520 c0 -5 5 -10 10 -10 6 0 10 5 10 10 0 6 -4 10 -10 10 -5 0
-10 -4 -10 -10z"/>
<path d="M2120 3510 c0 -5 5 -10 10 -10 6 0 10 5 10 10 0 6 -4 10 -10 10 -5 0
-10 -4 -10 -10z"/>
<path d="M2960 3510 c0 -5 4 -10 9 -10 6 0 13 5 16 10 3 6 -1 10 -9 10 -9 0
-16 -4 -16 -10z"/>
<path d="M3600 3516 c0 -2 7 -9 15 -16 9 -7 15 -8 15 -2 0 5 -7 12 -15 16 -8
3 -15 4 -15 2z"/>
<path d="M3106 3498 c3 -4 9 -8 15 -8 5 0 9 4 9 8 0 5 -7 9 -15 9 -8 0 -12 -4
-9 -9z"/>
<path d="M3376 3493 c-6 -14 -5 -15 5 -6 7 7 10 15 7 18 -3 3 -9 -2 -12 -12z"/>
<path d="M2030 3490 c0 -5 5 -10 10 -10 6 0 10 5 10 10 0 6 -4 10 -10 10 -5 0
-10 -4 -10 -10z"/>
<path d="M3396 3485 c-9 -26 -7 -32 5 -12 6 10 9 21 6 23 -2 3 -7 -2 -11 -11z"/>
<path d="M3591 3484 c0 -11 3 -14 6 -6 3 7 2 16 -1 19 -3 4 -6 -2 -5 -13z"/>
<path d="M3548 3470 c-26 -24 -22 -35 4 -10 12 11 20 22 17 24 -2 2 -12 -4
-21 -14z"/>
<path d="M2850 3469 c0 -5 5 -7 10 -4 6 3 10 8 10 11 0 2 -4 4 -10 4 -5 0 -10
-5 -10 -11z"/>
<path d="M1050 3449 c0 -5 5 -7 10 -4 6 3 10 8 10 11 0 2 -4 4 -10 4 -5 0 -10
-5 -10 -11z"/>
<path d="M3576 3451 c-3 -5 1 -11 9 -14 9 -4 12 -1 8 9 -6 16 -10 17 -17 5z"/>
<path d="M1367 3439 c7 -7 15 -10 18 -7 3 3 -2 9 -12 12 -14 6 -15 5 -6 -5z"/>
<path d="M1907 3436 c-4 -10 -1 -13 9 -9 15 6 19 23 5 23 -5 0 -11 -7 -14 -14z"/>
<path d="M2840 3440 c0 -6 7 -10 15 -10 8 0 15 2 15 4 0 2 -7 6 -15 10 -8 3
-15 1 -15 -4z"/>
<path d="M3370 3430 c0 -5 7 -7 15 -4 8 4 15 8 15 10 0 2 -7 4 -15 4 -8 0 -15
-4 -15 -10z"/>
<path d="M3145 3420 c3 -5 8 -10 11 -10 2 0 4 5 4 10 0 6 -5 10 -11 10 -5 0
-7 -4 -4 -10z"/>
<path d="M3416 3402 c-2 -4 4 -8 14 -8 10 0 16 4 14 8 -3 4 -9 8 -14 8 -5 0
-11 -4 -14 -8z"/>
<path d="M3741 3394 c0 -11 3 -14 6 -6 3 7 2 16 -1 19 -3 4 -6 -2 -5 -13z"/>
<path d="M1330 3380 c-8 -5 -10 -10 -5 -10 6 0 17 5 25 10 8 5 11 10 5 10 -5
0 -17 -5 -25 -10z"/>
<path d="M3110 3374 c0 -8 5 -12 10 -9 6 3 10 10 10 16 0 5 -4 9 -10 9 -5 0
-10 -7 -10 -16z"/>
<path d="M3627 3369 c7 -7 15 -10 18 -7 3 3 -2 9 -12 12 -14 6 -15 5 -6 -5z"/>
<path d="M3425 3360 c3 -5 8 -10 11 -10 2 0 4 5 4 10 0 6 -5 10 -11 10 -5 0
-7 -4 -4 -10z"/>
<path d="M2490 3350 c0 -12 28 -21 35 -11 2 5 -4 11 -15 14 -11 3 -20 2 -20
-3z"/>
<path d="M4051 3334 c0 -11 3 -14 6 -6 3 7 2 16 -1 19 -3 4 -6 -2 -5 -13z"/>
<path d="M1625 3320 c3 -5 8 -10 11 -10 2 0 4 5 4 10 0 6 -5 10 -11 10 -5 0
-7 -4 -4 -10z"/>
<path d="M2299 3311 c9 -6 11 -16 7 -27 -6 -15 -4 -16 5 -7 14 14 5 43 -13 43
-10 0 -9 -3 1 -9z"/>
<path d="M2346 3312 c-4 -7 -4 -16 -1 -22 3 -5 1 -10 -6 -10 -7 0 -10 -3 -6
-6 12 -13 34 11 27 30 -4 14 -9 16 -14 8z"/>
<path d="M2380 3309 c0 -5 5 -7 10 -4 6 3 10 8 10 11 0 2 -4 4 -10 4 -5 0 -10
-5 -10 -11z"/>
<path d="M2410 3310 c0 -5 5 -10 10 -10 6 0 10 5 10 10 0 6 -4 10 -10 10 -5 0
-10 -4 -10 -10z"/>
<path d="M3171 3304 c0 -11 3 -14 6 -6 3 7 2 16 -1 19 -3 4 -6 -2 -5 -13z"/>
<path d="M1465 3300 c3 -5 8 -10 11 -10 2 0 4 5 4 10 0 6 -5 10 -11 10 -5 0
-7 -4 -4 -10z"/>
<path d="M3910 3295 c0 -8 4 -15 10 -15 5 0 7 7 4 15 -4 8 -8 15 -10 15 -2 0
-4 -7 -4 -15z"/>
<path d="M3860 3276 c0 -9 5 -16 10 -16 6 0 10 4 10 9 0 6 -4 13 -10 16 -5 3
-10 -1 -10 -9z"/>
<path d="M2096 3272 c-3 -5 1 -9 9 -9 8 0 15 4 15 9 0 4 -4 8 -9 8 -6 0 -12
-4 -15 -8z"/>
<path d="M2377 3259 c7 -7 15 -10 18 -7 3 3 -2 9 -12 12 -14 6 -15 5 -6 -5z"/>
<path d="M2060 3244 c0 -8 5 -12 10 -9 6 4 8 11 5 16 -9 14 -15 11 -15 -7z"/>
<path d="M3700 3239 c0 -5 5 -7 10 -4 6 3 10 8 10 11 0 2 -4 4 -10 4 -5 0 -10
-5 -10 -11z"/>
<path d="M2345 3230 c-4 -6 -11 -8 -16 -5 -5 4 -9 1 -9 -4 0 -15 11 -13 34 4
11 8 15 15 9 15 -7 0 -15 -5 -18 -10z"/>
<path d="M2392 3224 c-7 -8 -8 -14 -3 -14 10 0 25 19 20 25 -2 1 -10 -3 -17
-11z"/>
<path d="M2458 3213 c7 -3 16 -2 19 1 4 3 -2 6 -13 5 -11 0 -14 -3 -6 -6z"/>
<path d="M1950 3191 c0 -6 4 -13 10 -16 6 -3 7 1 4 9 -7 18 -14 21 -14 7z"/>
<path d="M2416 3174 c-8 -22 -4 -25 11 -9 7 8 9 16 4 19 -5 3 -12 -1 -15 -10z"/>
<path d="M3435 3180 c-3 -5 -1 -10 4 -10 6 0 11 5 11 10 0 6 -2 10 -4 10 -3 0
-8 -4 -11 -10z"/>
<path d="M3635 3180 c-3 -5 -1 -10 4 -10 6 0 11 5 11 10 0 6 -2 10 -4 10 -3 0
-8 -4 -11 -10z"/>
<path d="M1915 3170 c-3 -6 1 -7 9 -4 18 7 21 14 7 14 -6 0 -13 -4 -16 -10z"/>
<path d="M1875 3160 c4 -6 11 -8 16 -5 14 9 11 15 -7 15 -8 0 -12 -5 -9 -10z"/>
<path d="M900 3150 c0 -5 5 -10 11 -10 5 0 7 5 4 10 -3 6 -8 10 -11 10 -2 0
-4 -4 -4 -10z"/>
<path d="M1925 3149 c-11 -16 -1 -19 13 -3 7 8 8 14 3 14 -5 0 -13 -5 -16 -11z"/>
<path d="M4001 3134 c0 -11 3 -14 6 -6 3 7 2 16 -1 19 -3 4 -6 -2 -5 -13z"/>
<path d="M4021 3124 c0 -11 3 -14 6 -6 3 7 2 16 -1 19 -3 4 -6 -2 -5 -13z"/>
<path d="M3925 3121 c-3 -5 -1 -12 5 -16 5 -3 10 1 10 9 0 18 -6 21 -15 7z"/>
<path d="M1560 3110 c0 -5 5 -10 10 -10 6 0 10 5 10 10 0 6 -4 10 -10 10 -5 0
-10 -4 -10 -10z"/>
<path d="M1915 3110 c-3 -5 -1 -10 4 -10 6 0 11 5 11 10 0 6 -2 10 -4 10 -3 0
-8 -4 -11 -10z"/>
<path d="M3810 3070 c0 -5 5 -10 10 -10 6 0 10 5 10 10 0 6 -4 10 -10 10 -5 0
-10 -4 -10 -10z"/>
<path d="M2471 3034 c0 -11 3 -14 6 -6 3 7 2 16 -1 19 -3 4 -6 -2 -5 -13z"/>
<path d="M3980 3009 c0 -5 5 -7 10 -4 6 3 10 8 10 11 0 2 -4 4 -10 4 -5 0 -10
-5 -10 -11z"/>
<path d="M4100 2995 c-8 -9 -8 -15 -2 -15 12 0 26 19 19 26 -2 2 -10 -2 -17
-11z"/>
<path d="M3917 2989 c7 -7 15 -10 18 -7 3 3 -2 9 -12 12 -14 6 -15 5 -6 -5z"/>
<path d="M4135 2990 c-3 -5 -1 -10 4 -10 6 0 11 5 11 10 0 6 -2 10 -4 10 -3 0
-8 -4 -11 -10z"/>
<path d="M4060 2980 c0 -5 5 -10 11 -10 5 0 7 5 4 10 -3 6 -8 10 -11 10 -2 0
-4 -4 -4 -10z"/>
<path d="M3380 2960 c0 -5 5 -10 11 -10 5 0 7 5 4 10 -3 6 -8 10 -11 10 -2 0
-4 -4 -4 -10z"/>
<path d="M3880 2940 c0 -5 7 -7 15 -4 8 4 15 8 15 10 0 2 -7 4 -15 4 -8 0 -15
-4 -15 -10z"/>
<path d="M3850 2909 c0 -5 5 -7 10 -4 6 3 10 8 10 11 0 2 -4 4 -10 4 -5 0 -10
-5 -10 -11z"/>
<path d="M906 2894 c-4 -9 -4 -19 -1 -22 2 -3 7 3 11 12 4 9 4 19 1 22 -2 3
-7 -3 -11 -12z"/>
<path d="M937 2889 c-3 -13 -1 -19 6 -16 15 5 22 37 9 37 -5 0 -12 -9 -15 -21z"/>
<path d="M1008 2903 c7 -3 16 -2 19 1 4 3 -2 6 -13 5 -11 0 -14 -3 -6 -6z"/>
<path d="M3810 2879 c0 -5 5 -7 10 -4 6 3 10 8 10 11 0 2 -4 4 -10 4 -5 0 -10
-5 -10 -11z"/>
<path d="M695 2860 c-3 -6 1 -7 9 -4 18 7 21 14 7 14 -6 0 -13 -4 -16 -10z"/>
<path d="M661 2844 c0 -11 3 -14 6 -6 3 7 2 16 -1 19 -3 4 -6 -2 -5 -13z"/>
<path d="M326 2833 c-6 -14 -5 -15 5 -6 7 7 10 15 7 18 -3 3 -9 -2 -12 -12z"/>
<path d="M4100 2840 c0 -5 5 -10 10 -10 6 0 10 5 10 10 0 6 -4 10 -10 10 -5 0
-10 -4 -10 -10z"/>
<path d="M636 2825 c4 -8 11 -15 16 -15 6 0 5 6 -2 15 -7 8 -14 15 -16 15 -2
0 -1 -7 2 -15z"/>
<path d="M933 2820 c-15 -14 -23 -16 -26 -7 -3 7 -6 4 -6 -5 -1 -25 11 -22 39
7 28 30 23 33 -7 5z"/>
<path d="M989 2832 c12 -8 11 -11 -3 -15 -15 -4 -15 -5 1 -3 19 1 21 19 1 24
-10 3 -10 1 1 -6z"/>
<path d="M796 2814 c-5 -13 -4 -14 7 -6 8 7 18 8 22 4 5 -4 5 -1 1 6 -10 17
-23 15 -30 -4z"/>
<path d="M691 2812 c-1 -8 -6 -10 -13 -6 -10 5 -10 4 -1 -6 15 -16 28 -8 20
12 -4 11 -6 11 -6 0z"/>
<path d="M3407 2796 c-4 -10 -1 -13 8 -9 8 3 12 9 9 14 -7 12 -11 11 -17 -5z"/>
<path d="M835 2790 c3 -5 14 -10 23 -10 15 0 15 2 2 10 -20 13 -33 13 -25 0z"/>
<path d="M1285 2790 c-3 -5 -1 -10 4 -10 6 0 11 5 11 10 0 6 -2 10 -4 10 -3 0
-8 -4 -11 -10z"/>
<path d="M3775 2790 c-3 -5 -1 -10 4 -10 6 0 11 5 11 10 0 6 -2 10 -4 10 -3 0
-8 -4 -11 -10z"/>
<path d="M659 2788 c-5 -16 -4 -46 2 -42 4 2 7 13 6 24 -1 17 -5 26 -8 18z"/>
<path d="M1012 2770 c-7 -11 -8 -20 -3 -20 9 0 24 30 18 36 -1 2 -8 -6 -15
-16z"/>
<path d="M333 2773 c4 -3 1 -13 -6 -22 -11 -14 -10 -14 5 -2 16 12 16 31 1 31
-4 0 -3 -3 0 -7z"/>
<path d="M580 2776 c0 -2 7 -9 15 -16 9 -7 15 -8 15 -2 0 5 -7 12 -15 16 -8 3
-15 4 -15 2z"/>
<path d="M946 2772 c-3 -5 1 -9 9 -9 8 0 12 4 9 9 -3 4 -7 8 -9 8 -2 0 -6 -4
-9 -8z"/>
<path d="M835 2750 c-3 -5 -2 -10 4 -10 5 0 13 5 16 10 3 6 2 10 -4 10 -5 0
-13 -4 -16 -10z"/>
<path d="M3540 2750 c0 -5 5 -10 11 -10 5 0 7 5 4 10 -3 6 -8 10 -11 10 -2 0
-4 -4 -4 -10z"/>
<path d="M931 2734 c0 -11 3 -14 6 -6 3 7 2 16 -1 19 -3 4 -6 -2 -5 -13z"/>
<path d="M816 2727 c3 -10 9 -15 12 -12 3 3 0 11 -7 18 -10 9 -11 8 -5 -6z"/>
<path d="M600 2721 c0 -5 7 -15 17 -22 15 -13 15 -12 4 9 -12 23 -21 28 -21
13z"/>
<path d="M845 2720 c-3 -5 -1 -10 4 -10 6 0 11 5 11 10 0 6 -2 10 -4 10 -3 0
-8 -4 -11 -10z"/>
<path d="M470 2710 c0 -5 5 -10 11 -10 5 0 7 5 4 10 -3 6 -8 10 -11 10 -2 0
-4 -4 -4 -10z"/>
<path d="M515 2710 c-3 -5 -1 -10 4 -10 6 0 11 5 11 10 0 6 -2 10 -4 10 -3 0
-8 -4 -11 -10z"/>
<path d="M546 2703 c-6 -14 -5 -15 5 -6 7 7 10 15 7 18 -3 3 -9 -2 -12 -12z"/>
<path d="M676 2705 c4 -8 8 -15 10 -15 2 0 4 7 4 15 0 8 -4 15 -10 15 -5 0 -7
-7 -4 -15z"/>
<path d="M300 2700 c0 -6 7 -10 15 -10 8 0 15 2 15 4 0 2 -7 6 -15 10 -8 3
-15 1 -15 -4z"/>
<path d="M3796 2697 c3 -10 9 -15 12 -12 3 3 0 11 -7 18 -10 9 -11 8 -5 -6z"/>
<path d="M573 2693 c-7 -2 -13 -10 -13 -16 0 -8 4 -7 12 1 19 19 30 14 23 -10
-5 -20 -4 -21 5 -5 17 27 3 43 -27 30z"/>
<path d="M760 2679 c0 -7 -10 -9 -25 -5 -15 4 -25 2 -25 -4 0 -6 4 -9 9 -6 5
4 11 1 13 -5 2 -6 13 -3 28 10 14 11 19 20 13 21 -7 0 -13 -5 -13 -11z"/>
<path d="M631 2664 c0 -11 3 -14 6 -6 3 7 2 16 -1 19 -3 4 -6 -2 -5 -13z"/>
<path d="M3716 2663 c-6 -14 -5 -15 5 -6 7 7 10 15 7 18 -3 3 -9 -2 -12 -12z"/>
<path d="M360 2660 c0 -5 5 -10 11 -10 5 0 7 5 4 10 -3 6 -8 10 -11 10 -2 0
-4 -4 -4 -10z"/>
<path d="M853 2655 c-7 -8 -9 -16 -4 -19 5 -3 12 1 15 10 8 22 4 25 -11 9z"/>
<path d="M3410 2644 c0 -8 5 -12 10 -9 6 4 8 11 5 16 -9 14 -15 11 -15 -7z"/>
<path d="M3485 2650 c-3 -5 -1 -10 4 -10 6 0 11 5 11 10 0 6 -2 10 -4 10 -3 0
-8 -4 -11 -10z"/>
<path d="M770 2646 c0 -2 7 -7 16 -10 8 -3 12 -2 9 4 -6 10 -25 14 -25 6z"/>
<path d="M310 2630 c0 -5 5 -10 11 -10 5 0 7 5 4 10 -3 6 -8 10 -11 10 -2 0
-4 -4 -4 -10z"/>
<path d="M566 2631 c-4 -6 -2 -11 3 -11 6 0 11 -9 11 -19 0 -11 4 -22 8 -25
12 -7 8 25 -5 48 -7 12 -13 15 -17 7z"/>
<path d="M706 2627 c3 -10 9 -15 12 -12 3 3 0 11 -7 18 -10 9 -11 8 -5 -6z"/>
<path d="M381 2621 c-8 -5 -9 -11 -3 -15 5 -3 12 1 16 9 6 17 6 18 -13 6z"/>
<path d="M757 2605 c3 -8 9 -12 14 -9 12 7 11 11 -5 17 -10 4 -13 1 -9 -8z"/>
<path d="M810 2610 c8 -5 20 -10 25 -10 6 0 3 5 -5 10 -8 5 -19 10 -25 10 -5
0 -3 -5 5 -10z"/>
<path d="M537 2596 c-4 -10 -1 -13 9 -9 15 6 19 23 5 23 -5 0 -11 -7 -14 -14z"/>
<path d="M3425 2590 c-3 -5 1 -10 10 -10 9 0 13 5 10 10 -3 6 -8 10 -10 10 -2
0 -7 -4 -10 -10z"/>
<path d="M3465 2590 c-3 -5 -1 -10 4 -10 6 0 11 5 11 10 0 6 -2 10 -4 10 -3 0
-8 -4 -11 -10z"/>
<path d="M3675 2590 c3 -5 8 -10 11 -10 2 0 4 5 4 10 0 6 -5 10 -11 10 -5 0
-7 -4 -4 -10z"/>
<path d="M306 2575 c-3 -8 -1 -15 3 -15 5 0 11 7 15 15 3 8 1 15 -3 15 -5 0
-11 -7 -15 -15z"/>
<path d="M404 2575 c-17 -14 -18 -15 0 -9 11 4 22 1 27 -7 5 -8 9 -9 9 -4 0
26 -16 35 -36 20z"/>
<path d="M451 2574 c0 -11 3 -14 6 -6 3 7 2 16 -1 19 -3 4 -6 -2 -5 -13z"/>
<path d="M930 2579 c0 -5 5 -7 10 -4 6 3 10 8 10 11 0 2 -4 4 -10 4 -5 0 -10
-5 -10 -11z"/>
<path d="M670 2570 c0 -5 5 -10 10 -10 6 0 10 5 10 10 0 6 -4 10 -10 10 -5 0
-10 -4 -10 -10z"/>
<path d="M615 2560 c3 -5 8 -10 11 -10 2 0 4 5 4 10 0 6 -5 10 -11 10 -5 0 -7
-4 -4 -10z"/>
<path d="M3650 2559 c0 -5 5 -7 10 -4 6 3 10 8 10 11 0 2 -4 4 -10 4 -5 0 -10
-5 -10 -11z"/>
<path d="M3980 2550 c0 -5 5 -10 11 -10 5 0 7 5 4 10 -3 6 -8 10 -11 10 -2 0
-4 -4 -4 -10z"/>
<path d="M3910 2539 c0 -5 5 -7 10 -4 6 3 10 8 10 11 0 2 -4 4 -10 4 -5 0 -10
-5 -10 -11z"/>
<path d="M380 2536 c0 -2 7 -6 15 -10 8 -3 15 -1 15 4 0 6 -7 10 -15 10 -8 0
-15 -2 -15 -4z"/>
<path d="M520 2529 c0 -5 5 -7 10 -4 6 3 10 8 10 11 0 2 -4 4 -10 4 -5 0 -10
-5 -10 -11z"/>
<path d="M3810 2519 c0 -5 5 -7 10 -4 6 3 10 8 10 11 0 2 -4 4 -10 4 -5 0 -10
-5 -10 -11z"/>
<path d="M312 2500 c0 -14 2 -19 5 -12 2 6 2 18 0 25 -3 6 -5 1 -5 -13z"/>
<path d="M782 2504 c-14 -16 -5 -18 17 -5 7 5 9 11 5 14 -5 3 -15 -1 -22 -9z"/>
<path d="M3740 2510 c-13 -8 -13 -11 1 -25 14 -14 15 -13 15 10 0 14 0 25 0
25 -1 0 -8 -5 -16 -10z"/>
<path d="M3775 2500 c-3 -6 1 -7 9 -4 18 7 21 14 7 14 -6 0 -13 -4 -16 -10z"/>
<path d="M533 2485 c-9 -24 1 -27 15 -5 8 13 8 20 2 20 -6 0 -13 -7 -17 -15z"/>
<path d="M4130 2485 c-8 -9 -8 -15 -2 -15 12 0 26 19 19 26 -2 2 -10 -2 -17
-11z"/>
<path d="M3705 2480 c3 -5 8 -10 11 -10 2 0 4 5 4 10 0 6 -5 10 -11 10 -5 0
-7 -4 -4 -10z"/>
<path d="M1052 2469 c2 -6 8 -10 13 -10 5 0 11 4 13 10 2 6 -4 11 -13 11 -9 0
-15 -5 -13 -11z"/>
<path d="M290 2460 c0 -5 5 -10 10 -10 6 0 10 5 10 10 0 6 -4 10 -10 10 -5 0
-10 -4 -10 -10z"/>
<path d="M3585 2459 c-4 -6 -5 -12 -2 -15 2 -3 7 2 10 11 7 17 1 20 -8 4z"/>
<path d="M3484 2449 c-8 -14 14 -29 32 -22 11 4 11 8 -1 19 -16 17 -22 17 -31
3z"/>
<path d="M3550 2445 c-7 -9 -8 -15 -2 -15 5 0 12 7 16 15 3 8 4 15 2 15 -2 0
-9 -7 -16 -15z"/>
<path d="M3720 2450 c0 -5 5 -10 10 -10 6 0 10 5 10 10 0 6 -4 10 -10 10 -5 0
-10 -4 -10 -10z"/>
<path d="M900 2440 c0 -5 5 -10 11 -10 5 0 7 5 4 10 -3 6 -8 10 -11 10 -2 0
-4 -4 -4 -10z"/>
<path d="M3740 2430 c-8 -5 -10 -10 -5 -10 6 0 17 5 25 10 8 5 11 10 5 10 -5
0 -17 -5 -25 -10z"/>
<path d="M3785 2431 c-3 -5 -1 -12 5 -16 5 -3 10 1 10 9 0 18 -6 21 -15 7z"/>
<path d="M4095 2430 c-3 -5 -1 -10 4 -10 6 0 11 5 11 10 0 6 -2 10 -4 10 -3 0
-8 -4 -11 -10z"/>
<path d="M430 2423 c5 -2 8 -9 5 -13 -3 -5 0 -12 6 -15 7 -5 10 -1 7 10 -1 10
-9 20 -16 21 -7 1 -8 0 -2 -3z"/>
<path d="M3661 2413 c7 -12 15 -20 18 -17 3 2 -3 12 -13 22 -17 16 -18 16 -5
-5z"/>
<path d="M3820 2420 c-9 -6 -10 -10 -3 -10 6 0 15 5 18 10 8 12 4 12 -15 0z"/>
<path d="M546 2411 c-4 -7 -5 -15 -2 -18 9 -9 19 4 14 18 -4 11 -6 11 -12 0z"/>
<path d="M3310 2410 c0 -5 5 -10 10 -10 6 0 10 5 10 10 0 6 -4 10 -10 10 -5 0
-10 -4 -10 -10z"/>
<path d="M3560 2405 c0 -8 4 -15 10 -15 5 0 7 7 4 15 -4 8 -8 15 -10 15 -2 0
-4 -7 -4 -15z"/>
<path d="M3270 2399 c0 -5 5 -7 10 -4 6 3 10 8 10 11 0 2 -4 4 -10 4 -5 0 -10
-5 -10 -11z"/>
<path d="M3503 2395 c-17 -19 -16 -30 0 -16 8 6 16 9 19 6 2 -3 5 2 5 10 0 19
-8 19 -24 0z"/>
<path d="M630 2380 c0 -5 5 -10 11 -10 5 0 7 5 4 10 -3 6 -8 10 -11 10 -2 0
-4 -4 -4 -10z"/>
<path d="M3598 2383 c7 -3 16 -2 19 1 4 3 -2 6 -13 5 -11 0 -14 -3 -6 -6z"/>
<path d="M3935 2367 c-104 -29 -123 -31 -142 -16 -15 13 -15 12 -5 -7 10 -19
9 -21 -13 -18 -14 1 -25 -2 -25 -8 0 -5 -8 -7 -19 -3 -10 3 -23 -1 -30 -9 -9
-11 -21 -12 -53 -5 -22 6 -43 7 -46 4 -3 -3 2 -5 11 -5 21 0 22 -14 2 -30 -9
-7 -15 -8 -15 -2 0 5 -7 13 -16 16 -11 4 -15 2 -11 -7 3 -8 -5 -14 -22 -15
-14 -1 -27 -7 -29 -12 -2 -6 -11 -10 -21 -10 -9 0 -22 -5 -29 -12 -9 -9 -12
-9 -12 1 0 7 -4 10 -8 7 -5 -3 -21 -7 -36 -10 -16 -3 -38 -13 -49 -23 -20 -17
-20 -17 -14 0 4 11 3 16 -3 12 -6 -3 -10 -1 -10 5 0 6 -4 8 -10 5 -5 -3 -10
-11 -10 -16 0 -6 5 -7 12 -3 7 5 8 3 4 -5 -5 -7 -14 -10 -22 -7 -8 3 -14 0
-14 -5 0 -7 -11 -9 -25 -7 -14 3 -25 2 -25 -1 0 -10 -52 -31 -63 -24 -5 3 -12
0 -16 -6 -4 -6 -15 -9 -24 -5 -13 4 -14 10 -7 24 6 11 6 21 1 24 -14 9 -21
-37 -8 -52 10 -13 8 -14 -11 -8 -12 4 -22 3 -22 -2 0 -5 -11 -7 -25 -4 -17 3
-25 0 -25 -10 0 -8 -7 -15 -15 -15 -8 0 -15 5 -15 10 0 5 -7 4 -15 -3 -8 -7
-15 -9 -15 -5 0 5 -9 0 -20 -10 -12 -11 -20 -13 -20 -6 0 7 -9 6 -26 -5 -25
-17 -26 -17 -49 12 -14 16 -24 25 -25 21 0 -5 7 -15 15 -23 8 -9 15 -20 15
-26 0 -6 -3 -9 -6 -6 -3 4 -21 0 -41 -8 -19 -8 -32 -10 -28 -5 3 6 1 11 -4 11
-6 0 -11 -4 -11 -9 0 -5 -10 -7 -22 -3 -16 4 -20 2 -15 -10 4 -11 -1 -15 -19
-15 -13 0 -24 4 -24 10 0 6 -3 7 -7 3 -5 -4 -8 -13 -8 -19 0 -5 -9 -11 -20
-13 -39 -5 -199 -50 -280 -79 -16 -5 -17 -5 -5 4 8 6 11 11 7 11 -5 0 -22 -9
-37 -20 -18 -13 -31 -16 -35 -10 -3 5 -1 10 5 10 6 0 8 5 5 10 -3 6 -11 10
-16 10 -6 0 -8 -4 -4 -9 3 -5 1 -12 -5 -16 -6 -4 -8 -11 -4 -16 4 -7 -7 -8
-31 -3 -27 5 -36 4 -31 -5 4 -6 2 -9 -7 -5 -8 3 -17 -2 -20 -10 -4 -9 -13 -13
-22 -10 -12 5 -14 14 -10 35 5 24 3 29 -12 29 -10 0 -14 -4 -8 -8 6 -4 10 -21
11 -37 1 -28 -2 -31 -28 -29 -15 1 -28 -2 -28 -7 0 -5 -8 -9 -18 -9 -10 0 -24
-6 -31 -12 -11 -10 -13 -10 -7 0 9 15 -10 16 -19 2 -5 -8 -11 -8 -20 0 -16 13
-30 -3 -19 -22 6 -10 4 -10 -7 0 -15 14 -33 16 -25 3 3 -5 -1 -12 -10 -15 -12
-5 -14 -1 -10 17 3 12 3 17 0 10 -3 -7 -12 -9 -20 -6 -8 3 -14 0 -14 -7 0 -6
5 -8 12 -4 7 5 8 3 3 -5 -4 -7 -16 -11 -26 -8 -11 3 -19 2 -19 -3 0 -4 -8 -10
-17 -14 -10 -3 -24 -9 -31 -12 -8 -4 -10 0 -6 10 3 9 1 16 -6 16 -6 0 -9 -4
-6 -9 9 -13 -19 -32 -38 -25 -9 3 -16 1 -16 -6 0 -7 -8 -9 -20 -5 -13 4 -20 2
-20 -7 0 -10 -3 -9 -10 2 -7 11 -10 11 -10 2 0 -7 -4 -11 -9 -7 -5 3 -12 1
-16 -4 -3 -6 -12 -8 -20 -4 -8 3 -15 0 -15 -7 0 -6 -8 -11 -17 -10 -26 3 -63
-11 -63 -22 0 -6 -7 -7 -15 -4 -9 3 -25 0 -36 -7 -17 -10 -22 -9 -38 12 -10
13 -24 21 -32 18 -11 -4 -10 -6 2 -6 9 -1 19 -10 22 -21 3 -12 1 -17 -5 -14
-5 3 -17 -1 -26 -9 -21 -19 -41 -23 -66 -12 -13 6 -21 3 -28 -9 -7 -13 -17
-16 -35 -11 -14 3 -22 2 -19 -3 5 -8 -48 -27 -108 -39 -10 -2 -52 -15 -93 -28
-41 -14 -83 -23 -93 -20 -10 3 -21 1 -25 -4 -4 -7 1 -8 12 -4 10 3 15 2 10 -2
-13 -15 -52 -12 -64 4 -6 9 -15 12 -20 7 -4 -5 -2 -11 5 -13 6 -3 12 -9 12
-14 0 -4 -7 -6 -15 -3 -8 4 -15 1 -15 -5 0 -7 -10 -10 -24 -7 -15 3 -27 -1
-30 -9 -3 -8 -19 -12 -39 -11 -20 1 -33 -2 -31 -6 5 -7 -14 -12 -44 -11 -6 1
-12 -3 -12 -8 0 -5 -9 -9 -19 -9 -11 0 -22 -6 -24 -12 -4 -10 -6 -10 -6 0 -1
10 -6 10 -22 2 -11 -7 -27 -9 -36 -6 -11 5 -13 2 -9 -10 5 -14 4 -15 -9 -4
-13 11 -18 10 -31 -6 -15 -19 -16 -19 -9 0 6 20 5 20 -15 1 -20 -19 -21 -19
-15 1 4 14 2 13 -6 -3 -8 -15 -21 -23 -37 -23 -14 0 -31 -8 -39 -17 -13 -17
-14 -16 -8 5 4 14 2 22 -6 22 -7 0 -10 -3 -6 -6 3 -3 1 -18 -5 -33 -13 -34
-17 -72 -7 -66 4 3 10 1 14 -5 6 -10 40 -9 51 3 4 4 17 7 28 7 12 0 41 8 66
16 25 9 59 20 75 24 17 5 57 16 90 25 33 9 71 19 84 21 14 3 29 8 35 12 6 3
17 7 26 8 25 4 104 25 125 34 54 23 198 61 211 56 9 -4 12 -2 8 5 -4 7 -1 10
7 7 8 -3 25 1 39 8 27 13 141 45 172 47 10 1 18 5 18 9 0 4 10 8 22 8 22 0 75
15 113 32 11 4 31 10 44 13 13 2 38 9 55 15 68 22 175 47 181 42 3 -3 5 0 5 6
0 7 8 12 17 12 17 0 33 4 143 39 36 11 76 22 90 25 26 4 52 13 85 26 46 19 88
29 97 24 5 -3 15 -1 23 6 7 6 24 12 37 14 13 1 29 6 36 10 7 4 12 5 12 1 0 -3
9 -1 21 5 11 6 28 13 37 15 19 4 189 52 294 83 37 10 70 17 73 14 3 -3 5 0 5
7 0 7 7 11 15 8 8 -4 17 -2 19 2 3 5 20 12 38 16 18 4 40 9 48 11 8 2 28 5 44
8 17 3 39 9 50 14 43 21 127 42 138 36 7 -4 8 -3 4 4 -5 8 0 12 13 12 30 0 27
-1 73 16 74 27 149 44 160 38 7 -5 8 -2 3 6 -6 10 -4 12 8 7 9 -3 17 -2 19 2
3 8 115 40 153 44 11 2 25 5 30 9 6 3 64 20 130 38 66 18 131 37 145 43 14 6
33 12 43 14 52 9 74 56 39 85 -15 13 -25 13 -87 -5z m83 -42 c-2 -2 -208 -62
-458 -133 -250 -72 -763 -219 -1140 -327 -377 -109 -694 -200 -705 -202 -11
-3 -74 -21 -140 -40 -66 -19 -347 -100 -625 -180 -277 -79 -508 -147 -512
-149 -4 -3 -8 6 -8 20 0 14 2 26 5 26 3 0 266 75 583 166 317 91 586 169 597
171 11 3 74 21 140 40 66 19 174 50 240 69 66 18 161 45 210 59 106 31 721
208 1050 302 230 65 645 185 720 207 36 11 40 10 43 -7 2 -10 2 -20 0 -22z"/>
<path d="M830 2369 c0 -5 5 -7 10 -4 6 3 10 8 10 11 0 2 -4 4 -10 4 -5 0 -10
-5 -10 -11z"/>
<path d="M3310 2370 c0 -5 5 -10 10 -10 6 0 10 5 10 10 0 6 -4 10 -10 10 -5 0
-10 -4 -10 -10z"/>
<path d="M3663 2365 c0 -8 4 -15 9 -15 4 0 8 4 8 9 0 6 -4 12 -8 15 -5 3 -9
-1 -9 -9z"/>
<path d="M3135 2360 c-3 -5 -1 -10 4 -10 6 0 11 5 11 10 0 6 -2 10 -4 10 -3 0
-8 -4 -11 -10z"/>
<path d="M3175 2360 c-3 -5 -1 -10 4 -10 6 0 11 5 11 10 0 6 -2 10 -4 10 -3 0
-8 -4 -11 -10z"/>
<path d="M3375 2360 c-3 -5 -1 -10 4 -10 6 0 11 5 11 10 0 6 -2 10 -4 10 -3 0
-8 -4 -11 -10z"/>
<path d="M3696 2353 c-6 -14 -5 -15 5 -6 7 7 10 15 7 18 -3 3 -9 -2 -12 -12z"/>
<path d="M3245 2349 c-4 -5 -4 -13 -1 -16 3 -4 6 0 7 8 0 8 4 6 9 -6 7 -16 9
-17 9 -3 1 21 -15 32 -24 17z"/>
<path d="M3566 2345 c-9 -26 -7 -32 5 -12 6 10 9 21 6 23 -2 3 -7 -2 -11 -11z"/>
<path d="M3615 2350 c3 -5 8 -10 11 -10 2 0 4 5 4 10 0 6 -5 10 -11 10 -5 0
-7 -4 -4 -10z"/>
<path d="M3434 2341 c4 -5 2 -11 -4 -13 -6 -2 -6 -8 0 -18 8 -13 10 -13 10 2
0 12 5 15 18 11 15 -6 15 -5 3 10 -14 18 -37 24 -27 8z"/>
<path d="M3135 2330 c-3 -5 -1 -10 4 -10 6 0 11 5 11 10 0 6 -2 10 -4 10 -3 0
-8 -4 -11 -10z"/>
<path d="M3326 2323 c-6 -14 -5 -15 5 -6 7 7 10 15 7 18 -3 3 -9 -2 -12 -12z"/>
<path d="M3710 2336 c0 -2 7 -7 16 -10 8 -3 12 -2 9 4 -6 10 -25 14 -25 6z"/>
<path d="M3086 2322 c5 -4 12 -11 15 -15 3 -5 9 -2 12 5 3 9 -3 14 -15 15 -11
1 -16 -1 -12 -5z"/>
<path d="M3670 2320 c0 -5 5 -10 10 -10 6 0 10 5 10 10 0 6 -4 10 -10 10 -5 0
-10 -4 -10 -10z"/>
<path d="M330 2309 c0 -5 5 -7 10 -4 6 3 10 8 10 11 0 2 -4 4 -10 4 -5 0 -10
-5 -10 -11z"/>
<path d="M3377 2303 c4 -10 8 -12 10 -6 3 7 11 9 20 6 11 -4 14 -2 9 5 -4 7
-16 12 -26 12 -14 0 -18 -5 -13 -17z"/>
<path d="M3030 2305 c0 -5 5 -17 10 -25 5 -8 10 -10 10 -5 0 6 -5 17 -10 25
-5 8 -10 11 -10 5z"/>
<path d="M3055 2300 c3 -5 8 -10 11 -10 2 0 4 5 4 10 0 6 -5 10 -11 10 -5 0
-7 -4 -4 -10z"/>
<path d="M3230 2299 c0 -5 5 -7 10 -4 6 3 10 8 10 11 0 2 -4 4 -10 4 -5 0 -10
-5 -10 -11z"/>
<path d="M3516 2294 c-9 -23 -4 -24 17 -2 13 14 14 18 3 18 -8 0 -17 -7 -20
-16z"/>
<path d="M3340 2289 c0 -5 5 -7 10 -4 6 3 10 8 10 11 0 2 -4 4 -10 4 -5 0 -10
-5 -10 -11z"/>
<path d="M880 2284 c0 -3 7 -12 15 -20 16 -17 18 -14 9 10 -6 15 -24 23 -24
10z"/>
<path d="M3095 2280 c-3 -5 -1 -10 4 -10 6 0 11 5 11 10 0 6 -2 10 -4 10 -3 0
-8 -4 -11 -10z"/>
<path d="M3455 2280 c3 -5 14 -10 23 -10 15 0 15 2 2 10 -20 13 -33 13 -25 0z"/>
<path d="M1005 2270 c-3 -5 1 -10 10 -10 9 0 13 5 10 10 -3 6 -8 10 -10 10 -2
0 -7 -4 -10 -10z"/>
<path d="M1045 2250 c3 -5 8 -10 11 -10 2 0 4 5 4 10 0 6 -5 10 -11 10 -5 0
-7 -4 -4 -10z"/>
<path d="M3096 2251 c-19 -7 -19 -8 2 -13 15 -4 22 -2 22 8 0 8 -1 14 -2 13
-2 0 -12 -4 -22 -8z"/>
<path d="M2967 2229 c4 -13 8 -18 11 -10 2 7 -1 18 -6 23 -8 8 -9 4 -5 -13z"/>
<path d="M2315 2230 c-3 -5 -1 -10 4 -10 6 0 11 5 11 10 0 6 -2 10 -4 10 -3 0
-8 -4 -11 -10z"/>
<path d="M3130 2236 c0 -2 7 -7 16 -10 8 -3 12 -2 9 4 -6 10 -25 14 -25 6z"/>
<path d="M3171 2224 c0 -11 3 -14 6 -6 3 7 2 16 -1 19 -3 4 -6 -2 -5 -13z"/>
<path d="M3220 2233 c0 -6 -7 -19 -16 -28 -23 -22 -13 -27 13 -7 17 13 20 21
13 32 -6 9 -10 10 -10 3z"/>
<path d="M3276 2231 c-3 -5 1 -11 9 -15 9 -3 15 0 15 9 0 16 -16 20 -24 6z"/>
<path d="M3001 2214 c0 -11 3 -14 6 -6 3 7 2 16 -1 19 -3 4 -6 -2 -5 -13z"/>
<path d="M3063 2223 c-15 -5 -17 -23 -4 -23 5 0 11 7 15 15 3 8 4 15 3 14 -1
0 -8 -3 -14 -6z"/>
<path d="M1297 2193 c-12 -12 -7 -22 8 -17 8 4 15 10 15 15 0 11 -14 12 -23 2z"/>
<path d="M2270 2189 c0 -5 5 -7 10 -4 6 3 10 8 10 11 0 2 -4 4 -10 4 -5 0 -10
-5 -10 -11z"/>
<path d="M3043 2177 c4 -14 26 -16 30 -3 1 5 -6 10 -16 12 -10 1 -16 -3 -14
-9z"/>
<path d="M2250 2159 c0 -5 5 -7 10 -4 6 3 10 8 10 11 0 2 -4 4 -10 4 -5 0 -10
-5 -10 -11z"/>
<path d="M2510 2141 c0 -5 -8 -12 -17 -14 -15 -4 -15 -5 -2 -6 9 0 22 6 29 14
9 10 9 15 1 15 -6 0 -11 -4 -11 -9z"/>
<path d="M2892 2120 c0 -14 2 -19 5 -12 2 6 2 18 0 25 -3 6 -5 1 -5 -13z"/>
<path d="M2315 2093 c-19 -15 -19 -15 -1 -9 10 3 25 1 32 -5 11 -9 14 -8 14 4
0 22 -23 27 -45 10z"/>
<path d="M2375 2100 c-3 -5 -1 -10 4 -10 6 0 11 5 11 10 0 6 -2 10 -4 10 -3 0
-8 -4 -11 -10z"/>
<path d="M3518 2093 c-8 -10 -29 -48 -47 -85 -17 -38 -36 -68 -41 -68 -4 0
-11 -13 -15 -30 -4 -16 -11 -30 -16 -30 -6 0 -7 -4 -4 -10 3 -5 1 -10 -4 -10
-6 0 -11 -6 -11 -14 0 -8 -9 -21 -20 -29 -11 -8 -17 -16 -14 -20 3 -3 -8 -15
-25 -28 -17 -13 -31 -26 -31 -31 0 -12 -159 -168 -171 -168 -6 0 -7 -5 -3 -12
4 -7 3 -8 -4 -4 -6 4 -21 -1 -32 -11 -12 -10 -31 -26 -42 -35 -12 -10 -27 -18
-33 -18 -7 0 -15 -7 -19 -15 -4 -12 -143 -85 -161 -85 -3 0 -21 -10 -41 -21
-30 -16 -39 -18 -45 -7 -7 10 -9 10 -9 1 0 -7 -7 -13 -15 -13 -8 0 -15 -5 -15
-11 0 -6 -11 -9 -24 -7 -13 1 -29 -2 -37 -8 -16 -12 -146 -41 -229 -50 -118
-13 -376 3 -419 26 -9 4 -29 10 -46 11 -16 2 -35 10 -41 18 -8 10 -13 11 -18
2 -5 -8 -13 -8 -29 1 -12 7 -28 13 -35 14 -7 1 -33 12 -58 23 -25 12 -63 29
-84 37 -22 9 -40 20 -40 26 0 5 -4 6 -10 3 -5 -3 -10 -1 -10 4 0 6 -3 10 -7
10 -21 -3 -24 2 -12 18 13 15 12 15 -8 5 -17 -10 -25 -9 -37 3 -8 8 -19 15
-24 15 -5 0 -15 6 -21 13 -11 14 -34 15 -63 2 -29 -12 -21 -27 10 -20 23 5 40
-2 81 -30 122 -81 323 -160 493 -192 124 -23 359 -23 485 0 426 79 801 364
985 749 24 51 39 70 60 77 15 6 28 9 28 7 0 -2 -20 -45 -45 -96 -157 -318
-432 -575 -748 -699 -310 -120 -638 -132 -952 -34 -102 32 -258 107 -356 171
-42 27 -76 44 -76 37 0 -7 12 -21 26 -31 14 -11 36 -29 48 -40 12 -12 24 -19
28 -16 3 3 19 -4 35 -16 16 -12 34 -22 40 -22 5 0 10 -5 10 -11 0 -5 5 -7 10
-4 6 3 10 1 10 -4 0 -6 3 -10 8 -9 12 3 82 -30 82 -40 0 -5 10 -8 23 -7 12 2
31 -3 42 -10 23 -14 106 -42 150 -50 147 -27 198 -35 206 -30 5 4 9 2 9 -3 0
-6 50 -8 123 -6 193 5 271 14 372 44 39 12 81 24 95 26 23 5 112 44 187 82 18
9 35 14 38 10 3 -3 20 8 36 23 17 16 36 29 41 29 10 0 40 21 101 72 23 19 37
24 48 17 7 -5 19 -9 24 -9 6 1 2 5 -7 11 -16 9 -16 11 5 32 12 12 27 21 32 19
6 -2 7 0 2 4 -11 12 23 43 41 37 9 -4 13 -2 9 4 -4 6 7 23 24 37 17 14 27 26
23 26 -4 0 1 9 11 20 10 11 22 17 27 14 4 -3 7 -2 6 3 -3 9 25 52 55 84 9 10
17 22 17 25 0 4 9 15 21 25 11 10 18 23 14 28 -3 6 -2 11 4 11 5 0 35 52 65
116 45 91 54 119 45 130 -16 20 -63 17 -81 -3z"/>
<path d="M440 2089 c0 -5 5 -7 10 -4 6 3 10 8 10 11 0 2 -4 4 -10 4 -5 0 -10
-5 -10 -11z"/>
<path d="M2725 2080 c-3 -5 -2 -10 4 -10 5 0 13 5 16 10 3 6 2 10 -4 10 -5 0
-13 -4 -16 -10z"/>
<path d="M2218 2073 c7 -3 16 -2 19 1 4 3 -2 6 -13 5 -11 0 -14 -3 -6 -6z"/>
<path d="M2086 2044 c-8 -22 -1 -28 19 -17 14 8 14 11 2 22 -12 9 -16 8 -21
-5z"/>
<path d="M2146 2043 c-6 -14 -5 -15 5 -6 7 7 10 15 7 18 -3 3 -9 -2 -12 -12z"/>
<path d="M2175 2050 c-3 -5 -1 -10 4 -10 6 0 11 5 11 10 0 6 -2 10 -4 10 -3 0
-8 -4 -11 -10z"/>
<path d="M2320 2050 c-13 -8 -12 -10 3 -10 9 0 17 5 17 10 0 12 -1 12 -20 0z"/>
<path d="M2390 2050 c0 -5 5 -10 11 -10 5 0 7 5 4 10 -3 6 -8 10 -11 10 -2 0
-4 -4 -4 -10z"/>
<path d="M2445 2039 c-4 -6 -5 -12 -2 -15 2 -3 7 2 10 11 7 17 1 20 -8 4z"/>
<path d="M2343 2033 c-18 -7 -16 -23 2 -23 8 0 15 7 15 15 0 8 -1 15 -2 14 -2
0 -9 -3 -15 -6z"/>
<path d="M540 2025 c0 -5 5 -17 10 -25 5 -8 10 -10 10 -5 0 6 -5 17 -10 25 -5
8 -10 11 -10 5z"/>
<path d="M1085 2021 c-3 -5 -1 -12 5 -16 5 -3 10 1 10 9 0 18 -6 21 -15 7z"/>
<path d="M2157 2012 c-15 -16 -15 -18 1 -19 11 -1 18 6 18 18 0 23 1 23 -19 1z"/>
<path d="M2260 2011 c0 -5 5 -13 10 -16 6 -3 10 -2 10 4 0 5 -4 13 -10 16 -5
3 -10 2 -10 -4z"/>
<path d="M1871 1994 c0 -11 3 -14 6 -6 3 7 2 16 -1 19 -3 4 -6 -2 -5 -13z"/>
<path d="M2206 1991 c-19 -7 -18 -8 4 -14 13 -3 26 -4 29 -2 2 3 -1 5 -8 5 -7
0 -9 5 -6 10 7 11 7 11 -19 1z"/>
<path d="M2332 1988 c2 -6 10 -13 16 -14 7 -1 8 0 2 3 -5 2 -8 9 -4 14 3 5 0
9 -6 9 -7 0 -10 -5 -8 -12z"/>
<path d="M2379 1983 c-12 -16 -12 -17 2 -6 9 7 20 9 24 5 5 -4 5 -1 1 6 -9 16
-11 15 -27 -5z"/>
<path d="M1726 1965 c3 -7 12 -16 19 -19 9 -3 12 0 9 9 -3 7 -12 16 -19 19 -9
3 -12 0 -9 -9z"/>
<path d="M1916 1967 c3 -10 9 -15 12 -12 3 3 0 11 -7 18 -10 9 -11 8 -5 -6z"/>
<path d="M2020 1969 c0 -5 5 -7 10 -4 6 3 10 8 10 11 0 2 -4 4 -10 4 -5 0 -10
-5 -10 -11z"/>
<path d="M2060 1962 c0 -13 47 -28 57 -18 4 3 -3 6 -13 6 -11 0 -25 5 -32 12
-9 9 -12 9 -12 0z"/>
<path d="M1672 1951 c-11 -6 -10 -10 0 -19 11 -8 14 -7 14 9 0 10 0 19 -1 19
0 0 -6 -4 -13 -9z"/>
<path d="M1817 1947 c-3 -8 3 -14 16 -15 12 0 17 2 12 6 -6 4 -13 11 -16 15
-4 4 -9 2 -12 -6z"/>
<path d="M1987 1949 c7 -7 15 -10 18 -7 3 3 -2 9 -12 12 -14 6 -15 5 -6 -5z"/>
<path d="M2210 1950 c0 -5 5 -10 10 -10 6 0 10 5 10 10 0 6 -4 10 -10 10 -5 0
-10 -4 -10 -10z"/>
<path d="M2241 1950 c0 -8 4 -22 9 -30 12 -18 12 -2 0 25 -6 13 -9 15 -9 5z"/>
<path d="M1925 1930 c-3 -5 -1 -10 4 -10 6 0 11 5 11 10 0 6 -2 10 -4 10 -3 0
-8 -4 -11 -10z"/>
<path d="M1650 1908 c11 -12 22 -19 25 -16 7 7 -23 38 -36 38 -5 0 -1 -10 11
-22z"/>
<path d="M1700 1921 c0 -4 11 -6 25 -3 14 2 25 6 25 8 0 2 -11 4 -25 4 -14 0
-25 -4 -25 -9z"/>
<path d="M2013 1915 c-10 -11 -9 -13 6 -12 11 1 17 7 14 14 -6 16 -5 16 -20
-2z"/>
<path d="M3340 1920 c0 -5 7 -10 15 -10 8 0 15 5 15 10 0 6 -7 10 -15 10 -8 0
-15 -4 -15 -10z"/>
<path d="M1976 1905 c4 -8 8 -15 10 -15 2 0 4 7 4 15 0 8 -4 15 -10 15 -5 0
-7 -7 -4 -15z"/>
<path d="M580 1899 c0 -5 5 -7 10 -4 6 3 10 8 10 11 0 2 -4 4 -10 4 -5 0 -10
-5 -10 -11z"/>
<path d="M986 1895 c4 -8 10 -15 15 -15 4 0 6 7 3 15 -4 8 -10 15 -15 15 -4 0
-6 -7 -3 -15z"/>
<path d="M1577 1889 c4 -13 8 -18 11 -10 2 7 -1 18 -6 23 -8 8 -9 4 -5 -13z"/>
<path d="M1830 1899 c0 -5 5 -7 10 -4 6 3 10 8 10 11 0 2 -4 4 -10 4 -5 0 -10
-5 -10 -11z"/>
<path d="M2120 1888 c-10 -21 -10 -22 4 -5 14 18 15 18 25 0 11 -20 14 -14 5
11 -9 22 -21 20 -34 -6z"/>
<path d="M955 1890 c3 -5 8 -10 11 -10 2 0 4 5 4 10 0 6 -5 10 -11 10 -5 0 -7
-4 -4 -10z"/>
<path d="M1633 1885 c0 -8 7 -17 15 -20 21 -8 22 -3 2 17 -13 14 -17 15 -17 3z"/>
<path d="M2057 1893 c-12 -12 -7 -23 11 -23 13 0 14 2 3 9 -11 7 -11 9 0 14 8
3 9 6 3 6 -6 1 -14 -2 -17 -6z"/>
<path d="M3230 1890 c0 -5 5 -10 10 -10 6 0 10 5 10 10 0 6 -4 10 -10 10 -5 0
-10 -4 -10 -10z"/>
<path d="M2010 1876 c0 -2 7 -7 16 -10 8 -3 12 -2 9 4 -6 10 -25 14 -25 6z"/>
<path d="M3275 1870 c3 -5 8 -10 11 -10 2 0 4 5 4 10 0 6 -5 10 -11 10 -5 0
-7 -4 -4 -10z"/>
<path d="M2984 1848 c-6 -19 -19 -24 -29 -9 -3 6 -15 7 -28 5 -12 -3 -33 -6
-47 -7 -14 -1 -36 -12 -49 -24 -16 -14 -30 -19 -39 -14 -8 5 -39 2 -71 -6 -67
-18 -93 -31 -86 -43 3 -5 -4 -8 -15 -7 -11 1 -20 4 -20 8 0 4 -10 5 -22 1 -14
-3 -19 -2 -14 6 4 7 3 12 -2 12 -6 0 -12 -7 -16 -15 -3 -8 -12 -15 -21 -15 -8
0 -23 -8 -32 -18 -20 -21 -29 -47 -13 -37 6 4 9 -3 6 -17 -2 -13 0 -27 4 -33
17 -24 19 -45 4 -45 -11 0 -14 6 -10 16 3 8 2 12 -4 9 -6 -3 -14 4 -20 17 -25
60 -81 88 -110 54 -6 -8 -19 -12 -28 -8 -15 5 -15 4 -2 -9 19 -19 15 -143 -4
-136 -6 3 -20 -1 -31 -9 -13 -10 -22 -11 -32 -3 -17 14 -17 32 0 24 6 -4 3 1
-8 10 -16 14 -17 18 -6 23 8 3 26 16 39 29 l24 24 -23 17 c-38 26 -70 22 -102
-12 -25 -28 -28 -37 -25 -86 2 -46 8 -59 33 -82 16 -16 35 -29 42 -29 7 -1 19
-2 26 -3 20 -3 67 15 67 26 0 5 5 6 10 3 6 -3 10 -2 10 3 0 6 8 8 19 5 12 -3
26 6 44 28 l25 32 27 -29 c15 -16 23 -23 19 -15 -5 11 -3 13 12 7 10 -4 15 -4
11 0 -11 11 29 35 48 28 9 -4 24 1 35 11 11 10 26 15 35 12 18 -8 45 1 45 15
0 6 -7 8 -15 5 -9 -4 -22 5 -35 23 -34 48 -68 32 -40 -20 7 -14 6 -20 -7 -24
-9 -4 -17 -5 -17 -4 -13 23 -45 163 -39 169 4 4 26 10 47 13 29 5 44 2 58 -10
19 -18 25 -70 9 -76 -5 -1 6 -20 25 -40 26 -30 34 -34 34 -19 0 10 -7 24 -15
31 -13 11 -13 15 -3 21 7 5 8 9 2 9 -6 0 -11 15 -11 33 0 21 5 34 13 34 7 0
12 -3 10 -6 -6 -10 21 -30 30 -23 4 4 4 -1 0 -12 -3 -10 -1 -25 5 -32 6 -8 9
-21 5 -29 -3 -9 -2 -14 3 -10 5 3 16 -1 24 -9 14 -14 27 -10 66 20 2 2 -1 9
-7 16 -6 7 -9 27 -8 45 1 17 -2 30 -6 27 -4 -3 -8 0 -8 6 0 16 19 50 29 50 10
0 31 -46 31 -70 0 -29 22 -70 37 -70 7 0 13 -6 13 -12 0 -10 2 -10 8 -1 4 6
19 14 32 16 40 6 59 18 66 39 4 15 8 17 14 8 6 -9 21 -11 57 -6 26 4 53 8 60
9 7 0 11 5 10 11 -1 6 3 10 10 9 6 -1 10 8 8 23 -3 32 -5 33 -44 37 -29 2 -35
7 -48 47 -24 71 -65 102 -79 58z m-23 -25 c13 -16 12 -17 -3 -4 -16 12 -18 11
-18 -8 0 -11 -4 -21 -9 -21 -5 0 -21 -4 -35 -10 -36 -13 -24 -42 17 -38 40 4
46 -18 8 -27 -33 -7 -36 -12 -22 -34 8 -12 16 -13 45 -4 29 9 36 9 36 -3 0
-16 -23 -29 -67 -37 -32 -6 -32 -6 -53 59 -29 94 -28 99 25 114 25 7 48 17 51
21 7 12 10 11 25 -8z m67 5 c1 -15 25 -112 28 -116 1 -2 18 1 38 6 31 9 36 8
36 -7 0 -12 -14 -21 -46 -29 -26 -7 -48 -11 -49 -10 -2 2 -10 30 -19 63 -8 33
-18 70 -22 83 -5 17 -2 22 13 22 11 0 20 -6 21 -12z m-45 -87 c-1 -2 -10 2
-18 9 -13 11 -13 15 -3 21 10 7 10 9 -2 9 -13 0 -13 1 0 10 12 7 16 3 21 -18
3 -15 4 -29 2 -31z m-193 23 c0 -8 -10 -14 -25 -14 -14 0 -25 -1 -25 -3 0 -1
9 -34 20 -72 11 -38 20 -71 20 -72 0 -2 -9 -3 -19 -3 -14 0 -21 9 -26 33 -21
100 -24 107 -50 97 -15 -6 -27 -6 -30 0 -10 15 4 30 28 31 12 0 38 6 57 13 38
15 50 12 50 -10z m205 -43 c3 -5 0 -13 -6 -17 -7 -4 -9 -3 -5 4 3 5 0 13 -6
15 -9 4 -10 6 -1 6 6 1 14 -3 18 -8z m-543 -117 c38 -59 45 -76 33 -80 -9 -4
-23 3 -33 16 -15 18 -21 20 -45 11 -17 -7 -27 -18 -27 -30 0 -20 -17 -37 -27
-28 -3 3 -2 47 2 96 7 84 9 91 29 90 15 0 34 -21 68 -75z m-181 22 c-7 -8 -22
-17 -35 -20 -13 -3 -26 -13 -30 -21 -7 -20 18 -83 37 -91 22 -8 69 14 61 28
-4 7 -3 10 1 5 5 -4 9 -16 10 -27 2 -27 -62 -48 -94 -31 -22 12 -51 70 -51
101 0 34 39 70 77 70 29 0 33 -2 24 -14z"/>
<path d="M2390 1608 c0 -18 5 -28 15 -28 19 0 19 11 0 36 -14 18 -14 18 -15
-8z"/>
<path d="M995 1850 c3 -5 8 -10 11 -10 2 0 4 5 4 10 0 6 -5 10 -11 10 -5 0 -7
-4 -4 -10z"/>
<path d="M1690 1845 c-10 -13 -9 -15 9 -15 11 0 21 4 21 9 0 18 -18 21 -30 6z"/>
<path d="M605 1840 c-3 -5 -1 -10 4 -10 6 0 11 5 11 10 0 6 -2 10 -4 10 -3 0
-8 -4 -11 -10z"/>
<path d="M1737 1829 c7 -7 15 -10 18 -7 3 3 -2 9 -12 12 -14 6 -15 5 -6 -5z"/>
<path d="M1877 1833 c-12 -12 -7 -22 8 -17 8 4 15 10 15 15 0 11 -14 12 -23 2z"/>
<path d="M415 1819 c-11 -17 1 -21 15 -4 8 9 8 15 2 15 -6 0 -14 -5 -17 -11z"/>
<path d="M1601 1814 c0 -11 3 -14 6 -6 3 7 2 16 -1 19 -3 4 -6 -2 -5 -13z"/>
<path d="M1800 1798 l-23 -31 26 19 c15 10 27 25 27 32 0 18 -4 15 -30 -20z"/>
<path d="M720 1810 c0 -5 5 -10 10 -10 6 0 10 5 10 10 0 6 -4 10 -10 10 -5 0
-10 -4 -10 -10z"/>
<path d="M865 1790 c-3 -5 -1 -10 4 -10 6 0 11 5 11 10 0 6 -2 10 -4 10 -3 0
-8 -4 -11 -10z"/>
<path d="M620 1779 c0 -5 5 -7 10 -4 6 3 10 8 10 11 0 2 -4 4 -10 4 -5 0 -10
-5 -10 -11z"/>
<path d="M1640 1770 c0 -5 6 -10 14 -10 8 0 18 5 21 10 3 6 -3 10 -14 10 -12
0 -21 -4 -21 -10z"/>
<path d="M480 1750 c0 -5 5 -10 10 -10 6 0 10 5 10 10 0 6 -4 10 -10 10 -5 0
-10 -4 -10 -10z"/>
<path d="M1096 1734 c-11 -7 -18 -16 -15 -18 2 -2 13 2 23 10 11 7 18 16 15
18 -2 2 -13 -2 -23 -10z"/>
<path d="M355 1730 c-3 -5 -1 -10 4 -10 6 0 11 5 11 10 0 6 -2 10 -4 10 -3 0
-8 -4 -11 -10z"/>
<path d="M420 1729 c0 -5 5 -7 10 -4 6 3 10 8 10 11 0 2 -4 4 -10 4 -5 0 -10
-5 -10 -11z"/>
<path d="M520 1720 c0 -19 3 -21 12 -12 9 9 9 15 0 24 -9 9 -12 7 -12 -12z"/>
<path d="M965 1730 c3 -5 8 -10 11 -10 2 0 4 5 4 10 0 6 -5 10 -11 10 -5 0 -7
-4 -4 -10z"/>
<path d="M1492 1715 c0 -16 2 -22 5 -12 2 9 2 23 0 30 -3 6 -5 -1 -5 -18z"/>
<path d="M1005 1720 c-3 -5 -1 -10 4 -10 6 0 11 5 11 10 0 6 -2 10 -4 10 -3 0
-8 -4 -11 -10z"/>
<path d="M944 1713 c3 -6 -1 -13 -9 -15 -13 -2 -12 -5 5 -16 18 -11 20 -10 17
8 -2 11 -7 23 -12 27 -4 5 -5 3 -1 -4z"/>
<path d="M2546 1692 c-8 -13 5 -52 18 -52 21 0 38 18 34 36 -3 20 -42 32 -52
16z"/>
<path d="M1325 1680 c-3 -5 -1 -10 4 -10 6 0 11 5 11 10 0 6 -2 10 -4 10 -3 0
-8 -4 -11 -10z"/>
<path d="M817 1669 c7 -7 15 -10 18 -7 3 3 -2 9 -12 12 -14 6 -15 5 -6 -5z"/>
<path d="M865 1659 c-4 -6 -5 -12 -2 -15 2 -3 7 2 10 11 7 17 1 20 -8 4z"/>
<path d="M602 1635 c0 -16 2 -22 5 -12 2 9 2 23 0 30 -3 6 -5 -1 -5 -18z"/>
<path d="M920 1650 c-13 -8 -12 -10 3 -10 9 0 17 5 17 10 0 12 -1 12 -20 0z"/>
<path d="M690 1646 c0 -2 7 -7 16 -10 8 -3 12 -2 9 4 -6 10 -25 14 -25 6z"/>
<path d="M775 1640 c3 -5 8 -10 11 -10 2 0 4 5 4 10 0 6 -5 10 -11 10 -5 0 -7
-4 -4 -10z"/>
<path d="M646 1623 c-6 -14 -5 -15 5 -6 7 7 10 15 7 18 -3 3 -9 -2 -12 -12z"/>
<path d="M677 1629 c7 -7 15 -10 18 -7 3 3 -2 9 -12 12 -14 6 -15 5 -6 -5z"/>
<path d="M940 1630 c-8 -5 -12 -11 -9 -14 2 -3 11 -1 19 4 8 5 12 11 9 14 -2
3 -11 1 -19 -4z"/>
<path d="M3355 1630 c3 -5 8 -10 11 -10 2 0 4 5 4 10 0 6 -5 10 -11 10 -5 0
-7 -4 -4 -10z"/>
<path d="M834 1617 c-4 -7 -4 -9 1 -5 4 4 14 3 22 -3 8 -7 13 -8 13 -1 0 15
-28 23 -36 9z"/>
<path d="M980 1619 c0 -5 5 -7 10 -4 6 3 10 8 10 11 0 2 -4 4 -10 4 -5 0 -10
-5 -10 -11z"/>
<path d="M1990 1616 c0 -9 5 -16 10 -16 6 0 10 4 10 9 0 6 -4 13 -10 16 -5 3
-10 -1 -10 -9z"/>
<path d="M505 1610 c3 -5 11 -10 16 -10 6 0 7 5 4 10 -3 6 -11 10 -16 10 -6 0
-7 -4 -4 -10z"/>
<path d="M746 1605 c-3 -9 -2 -14 3 -10 5 3 11 -1 14 -7 2 -7 7 -11 10 -8 3 3
0 13 -8 23 -11 16 -13 16 -19 2z"/>
<path d="M785 1610 c-3 -5 -1 -10 4 -10 6 0 11 5 11 10 0 6 -2 10 -4 10 -3 0
-8 -4 -11 -10z"/>
<path d="M465 1600 c3 -5 8 -10 11 -10 2 0 4 5 4 10 0 6 -5 10 -11 10 -5 0 -7
-4 -4 -10z"/>
<path d="M710 1599 c0 -5 5 -7 10 -4 6 3 10 8 10 11 0 2 -4 4 -10 4 -5 0 -10
-5 -10 -11z"/>
<path d="M1926 1597 c3 -10 9 -15 12 -12 3 3 0 11 -7 18 -10 9 -11 8 -5 -6z"/>
<path d="M932 1588 c2 -6 10 -13 16 -14 7 -1 8 0 2 3 -5 2 -8 9 -4 14 3 5 0 9
-6 9 -7 0 -10 -5 -8 -12z"/>
<path d="M790 1583 c0 -5 12 -9 27 -10 19 -1 22 1 12 8 -17 11 -39 12 -39 2z"/>
<path d="M2117 1576 c-4 -10 -1 -13 9 -9 15 6 19 23 5 23 -5 0 -11 -7 -14 -14z"/>
<path d="M386 1563 c-6 -14 -5 -15 5 -6 7 7 10 15 7 18 -3 3 -9 -2 -12 -12z"/>
<path d="M505 1570 c3 -5 8 -10 11 -10 2 0 4 5 4 10 0 6 -5 10 -11 10 -5 0 -7
-4 -4 -10z"/>
<path d="M905 1569 c-4 -6 -5 -12 -2 -15 2 -3 7 2 10 11 7 17 1 20 -8 4z"/>
<path d="M2080 1570 c0 -5 5 -10 11 -10 5 0 7 5 4 10 -3 6 -8 10 -11 10 -2 0
-4 -4 -4 -10z"/>
<path d="M330 1560 c0 -5 5 -10 10 -10 6 0 10 5 10 10 0 6 -4 10 -10 10 -5 0
-10 -4 -10 -10z"/>
<path d="M660 1560 c0 -9 39 -25 45 -18 2 2 -7 8 -21 15 -13 6 -24 7 -24 3z"/>
<path d="M866 1561 c-3 -5 1 -11 9 -14 9 -4 12 -1 8 9 -6 16 -10 17 -17 5z"/>
<path d="M417 1542 c-4 -18 -2 -20 18 -12 13 5 26 6 30 2 3 -3 3 2 -1 12 -5
14 -9 15 -15 4 -8 -11 -10 -11 -18 0 -6 11 -9 9 -14 -6z"/>
<path d="M580 1550 c8 -5 20 -10 25 -10 6 0 3 5 -5 10 -8 5 -19 10 -25 10 -5
0 -3 -5 5 -10z"/>
<path d="M636 1536 c3 -9 13 -16 22 -16 8 0 13 1 11 3 -2 1 -12 9 -22 16 -15
12 -17 12 -11 -3z"/>
<path d="M2665 1540 c-3 -5 1 -10 9 -10 9 0 16 5 16 10 0 6 -4 10 -9 10 -6 0
-13 -4 -16 -10z"/>
<path d="M525 1529 c-4 -6 -5 -12 -2 -15 2 -3 7 2 10 11 7 17 1 20 -8 4z"/>
<path d="M1870 1530 c0 -5 5 -10 11 -10 5 0 7 5 4 10 -3 6 -8 10 -11 10 -2 0
-4 -4 -4 -10z"/>
<path d="M2860 1530 c0 -5 5 -10 10 -10 6 0 10 5 10 10 0 6 -4 10 -10 10 -5 0
-10 -4 -10 -10z"/>
<path d="M305 1519 c-4 -6 -4 -13 -1 -16 3 -4 6 -1 6 6 0 7 7 11 15 8 8 -4 17
-2 20 3 4 6 -3 10 -14 10 -11 0 -23 -5 -26 -11z"/>
<path d="M610 1526 c0 -2 7 -9 15 -16 13 -11 14 -10 9 4 -5 14 -24 23 -24 12z"/>
<path d="M770 1510 c0 -19 3 -21 12 -12 9 9 9 15 0 24 -9 9 -12 7 -12 -12z"/>
<path d="M833 1518 c-13 -6 -23 -14 -23 -19 0 -4 11 -2 25 4 14 7 25 15 25 20
0 8 1 9 -27 -5z"/>
<path d="M870 1520 c0 -5 5 -10 11 -10 5 0 7 5 4 10 -3 6 -8 10 -11 10 -2 0
-4 -4 -4 -10z"/>
<path d="M2940 1526 c0 -2 7 -9 15 -16 13 -11 14 -10 9 4 -5 14 -24 23 -24 12z"/>
<path d="M570 1510 c0 -5 5 -10 10 -10 6 0 10 5 10 10 0 6 -4 10 -10 10 -5 0
-10 -4 -10 -10z"/>
<path d="M346 1495 c-9 -26 -7 -32 5 -12 6 10 9 21 6 23 -2 3 -7 -2 -11 -11z"/>
<path d="M485 1501 c-3 -5 -1 -12 5 -16 5 -3 10 1 10 9 0 18 -6 21 -15 7z"/>
<path d="M726 1502 c-3 -5 1 -9 9 -9 8 0 15 4 15 9 0 4 -4 8 -9 8 -6 0 -12 -4
-15 -8z"/>
<path d="M1826 1493 c-6 -14 -5 -15 5 -6 7 7 10 15 7 18 -3 3 -9 -2 -12 -12z"/>
<path d="M531 1486 c-10 -12 -8 -13 8 -9 12 3 18 9 15 14 -7 12 -10 11 -23 -5z"/>
<path d="M650 1475 c7 -8 17 -12 22 -9 6 4 5 10 -3 15 -22 14 -33 10 -19 -6z"/>
<path d="M2890 1470 c0 -5 5 -10 10 -10 6 0 10 5 10 10 0 6 -4 10 -10 10 -5 0
-10 -4 -10 -10z"/>
<path d="M2930 1470 c0 -5 5 -10 11 -10 5 0 7 5 4 10 -3 6 -8 10 -11 10 -2 0
-4 -4 -4 -10z"/>
<path d="M1851 1454 c0 -11 3 -14 6 -6 3 7 2 16 -1 19 -3 4 -6 -2 -5 -13z"/>
<path d="M2618 1453 c7 -3 16 -2 19 1 4 3 -2 6 -13 5 -11 0 -14 -3 -6 -6z"/>
<path d="M2685 1450 c-3 -5 -1 -10 4 -10 6 0 11 5 11 10 0 6 -2 10 -4 10 -3 0
-8 -4 -11 -10z"/>
<path d="M475 1429 c-9 -14 -2 -20 14 -10 8 6 9 11 3 15 -6 3 -14 1 -17 -5z"/>
<path d="M1925 1430 c-3 -5 -1 -10 4 -10 6 0 11 5 11 10 0 6 -2 10 -4 10 -3 0
-8 -4 -11 -10z"/>
<path d="M2140 1430 c0 -5 5 -10 10 -10 6 0 10 5 10 10 0 6 -4 10 -10 10 -5 0
-10 -4 -10 -10z"/>
<path d="M2801 1418 c-13 -20 -12 -22 1 -11 8 7 18 10 22 6 4 -4 4 0 0 10 -8
21 -6 21 -23 -5z"/>
<path d="M413 1415 c0 -8 4 -15 9 -15 4 0 8 7 8 15 0 8 -4 15 -8 15 -5 0 -9
-7 -9 -15z"/>
<path d="M1805 1420 c-3 -5 -1 -10 4 -10 6 0 11 5 11 10 0 6 -2 10 -4 10 -3 0
-8 -4 -11 -10z"/>
<path d="M2400 1419 c0 -5 5 -7 10 -4 6 3 10 8 10 11 0 2 -4 4 -10 4 -5 0 -10
-5 -10 -11z"/>
<path d="M386 1383 c-6 -14 -5 -15 5 -6 7 7 10 15 7 18 -3 3 -9 -2 -12 -12z"/>
<path d="M2270 1390 c0 -5 5 -10 10 -10 6 0 10 5 10 10 0 6 -4 10 -10 10 -5 0
-10 -4 -10 -10z"/>
<path d="M2581 1384 c0 -11 3 -14 6 -6 3 7 2 16 -1 19 -3 4 -6 -2 -5 -13z"/>
<path d="M326 1373 c-6 -14 -5 -15 5 -6 7 7 10 15 7 18 -3 3 -9 -2 -12 -12z"/>
<path d="M2140 1369 c0 -5 5 -7 10 -4 6 3 10 8 10 11 0 2 -4 4 -10 4 -5 0 -10
-5 -10 -11z"/>
<path d="M2230 1351 c0 -6 5 -13 10 -16 6 -3 10 1 10 9 0 9 -4 16 -10 16 -5 0
-10 -4 -10 -9z"/>
<path d="M329 1293 c-13 -17 -13 -17 6 -3 11 8 22 16 24 17 2 2 0 3 -6 3 -6 0
-17 -8 -24 -17z"/>
<path d="M295 1270 c3 -5 8 -10 11 -10 2 0 4 5 4 10 0 6 -5 10 -11 10 -5 0 -7
-4 -4 -10z"/>
<path d="M966 1032 c-3 -5 1 -9 9 -9 8 0 12 4 9 9 -3 4 -7 8 -9 8 -2 0 -6 -4
-9 -8z"/>
</g>
</svg>
